<svg xmlns="http://www.w3.org/2000/svg" xmlns:xlink="http://www.w3.org/1999/xlink" fill="none" version="1.1" width="265" height="25.999998092651367" viewBox="0 0 265 25.999998092651367"><g><path d="M85.466,13.654L85.778,11.47L80.708,11.47L81.046,9L86.116,9L86.428,6.686L81.826,6.79L82.19,4.32L96.438,3.956L96.1,6.426L91.212,6.556L90.874,9L96.308,9L95.97,11.47L90.536,11.47L90.224,13.654L95.164,13.654L94.02,21.74L79.59,21.74L80.734,13.654L85.466,13.654ZM72.856,22.234L75.3,14.876L79.59,14.876L77.146,22.234L72.856,22.234ZM75.456,13.888L75.118,9.442L79.408,9.442L79.746,13.888L75.456,13.888ZM76.21,8.454L75.872,4.008L80.162,4.008L80.5,8.454L76.21,8.454ZM89.964,19.348L90.432,16.124L84.894,16.124L84.426,19.348L89.964,19.348ZM110.972,8.948L109.568,8.948L109.932,6.478L111.596,6.478L112.116,4.398L111.336,3.514L116.276,3.514L115.548,6.478L120.306,6.478L118.33,20.518Q118.2,21.272,117.628,21.753Q117.056,22.234,116.302,22.234L112.168,22.234L114.456,19.842L115.99,8.948L114.924,8.948L111.648,22.234L107.696,22.234L110.972,8.948ZM107.124,15.864L106.968,22.234L103.016,22.234L103.016,21.532L96.828,22.234L97.192,19.816L99.688,11.912L98.284,11.912L98.648,9.442L108.528,9.442L108.164,11.912L103.64,11.912L101.274,19.322L103.094,19.114L103.172,15.864L107.124,15.864ZM108.71,4.502L108.372,6.972L99.48,6.972L99.818,4.502L108.71,4.502ZM121.372,21.792L123.114,9.442L122.256,8.454L128.184,8.454L127.82,10.924L137.726,10.924L138.35,6.478L123.036,6.478L123.374,4.008L143.628,4.008L142.302,13.394L127.482,13.394L126.728,18.828L141.184,18.88L142.666,17.84L142.12,21.792L121.372,21.792ZM166.482,13.862L165.39,21.714L153.586,21.714L154.678,13.862L166.482,13.862ZM146.436,9.468L149.998,4.19L149.374,3.54L155.146,3.54L151.168,9.468L154.314,9.468L150.336,15.396L153.508,15.396L153.17,17.866L145.266,17.866L145.604,15.396L147.944,11.938L146.098,11.938L146.436,9.468ZM159.514,5.542L159.67,4.502L158.812,3.514L164.168,3.514L163.882,5.542L168.146,5.542L167.808,8.012L163.544,8.012L163.232,10.118L167.054,10.118L166.69,12.588L154.886,12.588L155.25,10.118L158.864,10.118L159.176,8.012L154.99,8.012L155.328,5.542L159.514,5.542ZM152.676,21.246L144.694,21.766L145.032,19.296L153.04,18.776L152.676,21.246ZM161.802,19.27L162.218,16.28L158.266,16.28L157.85,19.27L161.802,19.27ZM178.728,8.454L178.884,7.414L171.006,7.414L171.344,4.996L179.222,4.996L179.3,4.528L178.65,3.54L184.37,3.54L184.162,4.996L191.962,4.996L191.624,7.414L183.824,7.414L183.668,8.454L190.948,8.454L189.986,15.318L182.68,15.318L181.718,22.208L176.804,22.208L177.766,15.318L170.33,15.318L171.292,8.454L178.728,8.454ZM190.116,21.714L185.202,21.714L183.304,16.488L188.036,16.488L190.116,21.714ZM172.228,16.488L176.856,16.488L173.502,21.714L168.692,21.714L172.228,16.488ZM183.356,10.716L183.044,12.874L186.346,12.874L186.658,10.716L183.356,10.716ZM178.13,12.874L178.416,10.716L175.14,10.716L174.828,12.874L178.13,12.874Z" fill="#FFFFFF" fill-opacity="1"/></g></svg>