<svg xmlns="http://www.w3.org/2000/svg" xmlns:xlink="http://www.w3.org/1999/xlink" fill="none" version="1.1" width="265" height="25.999998092651367" viewBox="0 0 265 25.999998092651367"><g><path d="M85.466,13.654L85.778,11.47L80.708,11.47L81.046,9L86.116,9L86.428,6.686L81.826,6.79L82.19,4.32L96.438,3.956L96.1,6.426L91.212,6.556L90.874,9L96.308,9L95.97,11.47L90.536,11.47L90.224,13.654L95.164,13.654L94.02,21.74L79.59,21.74L80.734,13.654L85.466,13.654ZM72.856,22.234L75.3,14.876L79.59,14.876L77.146,22.234L72.856,22.234ZM75.456,13.888L75.118,9.442L79.408,9.442L79.746,13.888L75.456,13.888ZM76.21,8.454L75.872,4.008L80.162,4.008L80.5,8.454L76.21,8.454ZM89.964,19.348L90.432,16.124L84.894,16.124L84.426,19.348L89.964,19.348ZM110.972,8.948L109.568,8.948L109.932,6.478L111.596,6.478L112.116,4.398L111.336,3.514L116.276,3.514L115.548,6.478L120.306,6.478L118.33,20.518Q118.2,21.272,117.628,21.753Q117.056,22.234,116.302,22.234L112.168,22.234L114.456,19.842L115.99,8.948L114.924,8.948L111.648,22.234L107.696,22.234L110.972,8.948ZM107.124,15.864L106.968,22.234L103.016,22.234L103.016,21.532L96.828,22.234L97.192,19.816L99.688,11.912L98.284,11.912L98.648,9.442L108.528,9.442L108.164,11.912L103.64,11.912L101.274,19.322L103.094,19.114L103.172,15.864L107.124,15.864ZM108.71,4.502L108.372,6.972L99.48,6.972L99.818,4.502L108.71,4.502ZM136.894,3.54L136.556,5.854L143.498,5.854L143.16,8.324L136.218,8.324L135.906,10.56L143.836,10.56L143.472,13.082L141.626,13.082L142.822,21.09L137.882,21.09L136.686,13.082L135.568,13.082L134.294,22.182L129.354,22.182L130.628,13.082L129.484,13.082L126.104,21.09L121.164,21.09L124.544,13.082L122.724,13.082L123.088,10.56L130.966,10.56L131.278,8.324L124.492,8.324L124.83,5.854L131.642,5.854L131.824,4.58L131.07,3.54L136.894,3.54ZM167.808,4.008L167.47,6.478L165.494,6.478L164.74,11.912L167.21,11.912L166.846,14.382L164.376,14.382L163.284,22.234L158.344,22.234L159.436,14.382L152.286,14.382L149.946,22.234L145.006,22.234L147.346,14.382L145.11,14.382L145.474,11.912L148.074,11.912L149.686,6.478L146.722,6.478L147.06,4.008L167.808,4.008ZM153.014,11.912L159.8,11.912L160.554,6.478L154.626,6.478L153.014,11.912ZM171.838,6.556L172.28,3.514L175.634,3.514L175.192,6.556L176.232,6.556L176.648,3.54L180.002,3.54L179.586,6.556L180.366,6.556L180.028,9.026L179.222,9.026L178.39,15.11L175.972,18.048L178.13,22.208L174.542,22.208L173.736,20.778L172.566,22.208L168.796,22.208L172.176,18.074L170.616,15.292L171.5,9.026L170.668,9.026L171.006,6.556L171.838,6.556ZM191.234,12.874L189.986,21.792L178.728,21.792L179.976,12.874L191.234,12.874ZM191.494,5.958L191.884,12.38L188.088,12.38L188.036,11.6L179.638,12.276L180.002,9.702L183.252,4.216L182.654,3.514L187.854,3.514L184.37,9.416L187.906,9.182L187.724,5.958L191.494,5.958ZM186.658,19.374L187.23,15.292L183.356,15.292L182.784,19.374L186.658,19.374ZM175.14,14.434L175.894,9.026L174.854,9.026L174.1,14.434L174.49,15.214L175.14,14.434Z" fill="#FFFFFF" fill-opacity="1"/></g></svg>