<svg xmlns="http://www.w3.org/2000/svg" xmlns:xlink="http://www.w3.org/1999/xlink" fill="none" version="1.1" width="50" height="50" viewBox="0 0 50 50"><defs><mask id="master_svg0_5524_52056/5524_51932" style="mask-type:alpha" maskUnits="userSpaceOnUse"><g><path d="M0,8L0,36Q0,36.1964,0.00963635,36.3925Q0.0192727,36.5887,0.0385222,36.7841Q0.0577717,36.9796,0.0865879,37.1738Q0.115404,37.3681,0.153718,37.5607Q0.192031,37.7533,0.23975,37.9438Q0.287469,38.1343,0.344477,38.3223Q0.401486,38.5102,0.467647,38.6951Q0.533809,38.88,0.608964,39.0615Q0.684118,39.2429,0.768086,39.4204Q0.852053,39.598,0.94463,39.7712Q1.03721,39.9444,1.13817,40.1128Q1.23914,40.2813,1.34824,40.4446Q1.45735,40.6078,1.57434,40.7656Q1.69133,40.9233,1.81592,41.0751Q1.9405,41.227,2.07239,41.3725Q2.20428,41.518,2.34315,41.6569Q2.48201,41.7957,2.62753,41.9276Q2.77304,42.0595,2.92485,42.1841Q3.07666,42.3087,3.23441,42.4257Q3.39215,42.5426,3.55544,42.6518Q3.71873,42.7609,3.88718,42.8618Q4.05563,42.9628,4.22883,43.0554Q4.40203,43.1479,4.57956,43.2319Q4.75709,43.3159,4.93853,43.391Q5.11997,43.4662,5.30488,43.5323Q5.48979,43.5985,5.67772,43.6555Q5.86565,43.7125,6.05616,43.7603Q6.24666,43.808,6.43928,43.8463Q6.63189,43.8846,6.82616,43.9134Q7.02042,43.9422,7.21586,43.9615Q7.41131,43.9807,7.60746,43.9904Q7.80361,44,8,44L20,44L24.2318,49.0781C24.6316,49.5579,25.3684,49.5579,25.7682,49.0781L30,44L42,44Q42.1964,44,42.3925,43.9904Q42.5887,43.9807,42.7841,43.9615Q42.9796,43.9422,43.1739,43.9134Q43.3681,43.8846,43.5607,43.8463Q43.7533,43.808,43.9438,43.7602Q44.1343,43.7125,44.3223,43.6555Q44.5102,43.5985,44.6951,43.5324Q44.88,43.4662,45.0615,43.391Q45.2429,43.3159,45.4204,43.2319Q45.598,43.1479,45.7712,43.0554Q45.9444,42.9628,46.1128,42.8618Q46.2813,42.7609,46.4446,42.6518Q46.6078,42.5426,46.7656,42.4257Q46.9233,42.3087,47.0751,42.1841Q47.227,42.0595,47.3725,41.9276Q47.518,41.7957,47.6569,41.6569Q47.7957,41.518,47.9276,41.3725Q48.0595,41.227,48.1841,41.0751Q48.3087,40.9233,48.4257,40.7656Q48.5426,40.6079,48.6517,40.4446Q48.7609,40.2813,48.8618,40.1128Q48.9628,39.9444,49.0554,39.7712Q49.1479,39.598,49.2319,39.4204Q49.3159,39.2429,49.391,39.0615Q49.4662,38.88,49.5323,38.6951Q49.5985,38.5102,49.6555,38.3223Q49.7125,38.1343,49.7602,37.9438Q49.808,37.7533,49.8463,37.5607Q49.8846,37.3681,49.9134,37.1738Q49.9422,36.9796,49.9615,36.7841Q49.9807,36.5887,49.9904,36.3925Q50,36.1964,50,36L50,8Q50,7.80361,49.9904,7.60746Q49.9807,7.41131,49.9615,7.21586Q49.9422,7.02042,49.9134,6.82616Q49.8846,6.63189,49.8463,6.43928Q49.808,6.24666,49.7602,6.05616Q49.7125,5.86565,49.6555,5.67772Q49.5985,5.48979,49.5323,5.30488Q49.4662,5.11997,49.391,4.93853Q49.3159,4.75709,49.2319,4.57956Q49.1479,4.40203,49.0554,4.22883Q48.9628,4.05563,48.8618,3.88718Q48.7609,3.71873,48.6518,3.55544Q48.5426,3.39215,48.4257,3.23441Q48.3087,3.07666,48.1841,2.92485Q48.0595,2.77304,47.9276,2.62753Q47.7957,2.48201,47.6569,2.34315Q47.518,2.20428,47.3725,2.07239Q47.227,1.9405,47.0751,1.81592Q46.9233,1.69133,46.7656,1.57434Q46.6078,1.45735,46.4446,1.34824Q46.2813,1.23914,46.1128,1.13817Q45.9444,1.03721,45.7712,0.94463Q45.598,0.852053,45.4204,0.768086Q45.2429,0.684118,45.0615,0.608964Q44.88,0.533809,44.6951,0.467647Q44.5102,0.401486,44.3223,0.344477Q44.1343,0.287469,43.9438,0.23975Q43.7533,0.192031,43.5607,0.153718Q43.3681,0.115404,43.1739,0.0865879Q42.9796,0.0577717,42.7841,0.0385222Q42.5887,0.0192727,42.3925,0.00963635Q42.1964,0,42,0L8,0Q7.80361,0,7.60746,0.00963635Q7.41131,0.0192727,7.21586,0.0385222Q7.02042,0.0577717,6.82616,0.0865879Q6.63189,0.115404,6.43928,0.153718Q6.24666,0.192031,6.05616,0.23975Q5.86565,0.287469,5.67772,0.344477Q5.48979,0.401486,5.30488,0.467647Q5.11997,0.533809,4.93853,0.608964Q4.75709,0.684118,4.57956,0.768086Q4.40203,0.852053,4.22883,0.94463Q4.05563,1.03721,3.88718,1.13817Q3.71873,1.23914,3.55544,1.34824Q3.39215,1.45735,3.23441,1.57434Q3.07666,1.69133,2.92485,1.81592Q2.77304,1.9405,2.62753,2.07239Q2.48201,2.20428,2.34315,2.34315Q2.20428,2.48201,2.07239,2.62753Q1.9405,2.77304,1.81592,2.92485Q1.69133,3.07666,1.57434,3.23441Q1.45735,3.39215,1.34824,3.55544Q1.23914,3.71873,1.13817,3.88718Q1.03721,4.05563,0.94463,4.22883Q0.852053,4.40203,0.768086,4.57956Q0.684118,4.75709,0.608964,4.93853Q0.533809,5.11997,0.467647,5.30488Q0.401486,5.48979,0.344477,5.67772Q0.287469,5.86565,0.23975,6.05616Q0.192031,6.24666,0.153718,6.43928Q0.115404,6.63189,0.0865879,6.82616Q0.0577717,7.02042,0.0385222,7.21586Q0.0192727,7.41131,0.00963635,7.60746Q0,7.80361,0,8Z" fill-rule="evenodd" fill="#FFFFFF" fill-opacity="1"/></g></mask><clipPath id="master_svg1_5524_52056/5524_51981"><rect x="-5.000000953674316" y="-7" width="60" height="60.00000762939453" rx="0"/></clipPath><mask id="master_svg2_5524_52056/5524_51984" style="mask-type:alpha" maskUnits="userSpaceOnUse"><g><path d="M0,-2L0,48L50,48L50,-2L0,-2Z" fill="#FFFFFF" fill-opacity="1"/></g></mask><filter id="master_svg3_5524_52056/5524_52000" filterUnits="objectBoundingBox" color-interpolation-filters="sRGB" x="-15" y="-15" width="49" height="49"><feFlood flood-opacity="0" result="BackgroundImageFix"/><feBlend mode="normal" in="SourceGraphic" in2="BackgroundImageFix" result="shape"/><feGaussianBlur stdDeviation="3.75" result="effect1_foregroundBlur"/></filter><filter id="master_svg4_5524_52056/5524_52005" filterUnits="objectBoundingBox" color-interpolation-filters="sRGB" x="-15" y="-15" width="61" height="61"><feFlood flood-opacity="0" result="BackgroundImageFix"/><feBlend mode="normal" in="SourceGraphic" in2="BackgroundImageFix" result="shape"/><feGaussianBlur stdDeviation="3.75" result="effect1_foregroundBlur"/></filter></defs><g><g mask="url(#master_svg0_5524_52056/5524_51932)"><g clip-path="url(#master_svg1_5524_52056/5524_51981)"><g><path d="M-5.000000953674316,53L54.999999046325684,53L54.999999046325684,-7L-5.000000953674316,-7L-5.000000953674316,53Z" fill="#FFE9D9" fill-opacity="1"/></g><g mask="url(#master_svg2_5524_52056/5524_51984)"><g><g><g transform="matrix(0.7071067690849304,-0.7071067690849304,0.7071067690849304,0.7071067690849304,-1.827211468835685,-7.786297327905913)"><path d="M-10.312498092651367,-1.687509536743164L-4.898718092651367,40.407490463256835L-1.326368092651368,40.444290463256834L4.713501907348633,-1.245538536743164L-10.312498092651367,-1.687509536743164Z" fill="#FEDEC9" fill-opacity="1"/></g><g transform="matrix(-0.7071067690849304,-0.7071067690849304,-0.7071067690849304,0.7071067690849304,101.89999856649092,42.20836095505206)"><path d="M60.39062690734863,-1.687509536743164L65.80440690734864,40.407490463256835L68.54810690734863,40.20489046325684L75.41662690734863,-1.245538536743164L60.39062690734863,-1.687509536743164Z" fill="#FEDEC9" fill-opacity="1"/></g><g transform="matrix(0.9659257531166077,-0.2588191032409668,0.2588191032409668,0.9659258127212524,4.022842563396125,2.185716106875759)"><path d="M10.3125,-14.185397624969482L13.45928,23.704502375030515L16.49784,23.704502375030515L21.1873,-13.876242624969482L10.3125,-14.185397624969482Z" fill="#FEDEC9" fill-opacity="1"/></g><g transform="matrix(-0.9659257531166077,-0.2588191032409668,-0.2588191032409668,0.9659258127212524,76.19098583655511,10.030736248254641)"><path d="M40.62332344055176,-14.185397624969482L43.77010344055176,23.704502375030515L46.808663440551754,23.704502375030515L51.49812344055176,-13.876242624969482L40.62332344055176,-14.185397624969482Z" fill="#FEDEC9" fill-opacity="1"/></g></g><g transform="matrix(1,0,0,-1,0,128.03130531311035)"><g transform="matrix(0.7071067690849304,-0.7071067690849304,0.7071067690849304,0.7071067690849304,-59.11398362981572,15.942456619359973)"><path d="M-10.312746047973633,79.3281192779541L-4.898966047973633,121.4231192779541L-2.0446160479736335,121.5890192779541L4.713253952026367,79.7700902779541L-10.312746047973633,79.3281192779541Z" fill="#FEDEC9" fill-opacity="1"/></g><g transform="matrix(-0.7071067690849304,-0.7071067690849304,-0.7071067690849304,0.7071067690849304,159.1863106333518,65.93712973800837)"><path d="M60.39039993286133,79.3281192779541L68.41878993286133,120.7600192779541L75.41639993286132,79.7700902779541L60.39039993286133,79.3281192779541Z" fill="#FEDEC9" fill-opacity="1"/></g><g transform="matrix(0.9659257531166077,-0.2588191032409668,0.2588191032409668,0.9659258127212524,-16.945565003343177,4.946195529110668)"><path d="M10.312255859375,66.83025765419006L13.459035859375,104.72015765419006L16.497595859375,104.72015765419006L21.187055859375,67.13941265419007L10.312255859375,66.83025765419006Z" fill="#FEDEC9" fill-opacity="1"/></g><g transform="matrix(0.2588190734386444,0.9659257531166077,-0.9659258127212524,0.2588190734386444,129.6516674414488,7.350602057210125)"><path d="M60.03609085083008,88.15797328948975L63.18287085083008,126.04787328948974L66.22143085083007,126.04787328948974L70.91089085083007,88.46712828948975L60.03609085083008,88.15797328948975Z" fill="#FEDEC9" fill-opacity="1"/></g><g transform="matrix(-0.2588190734386444,0.9659257531166077,0.9659258127212524,0.2588190734386444,-101.39881939090492,77.80604791421112)"><path d="M-12.18539047241211,89.09547328948975L-9.03861047241211,126.98537328948974L-6.000050472412109,126.98537328948974L-1.310590472412109,89.40462828948975L-12.18539047241211,89.09547328948975Z" fill="#FEDEC9" fill-opacity="1"/></g><g transform="matrix(-0.9659257531166077,-0.2588191032409668,-0.2588191032409668,0.9659258127212524,97.15894636880819,12.79122110073044)"><path d="M40.62310028076172,66.83025765419006L43.76988028076172,104.72015765419006L46.808440280761715,104.72015765419006L51.49790028076172,67.13941265419007L40.62310028076172,66.83025765419006Z" fill="#FEDEC9" fill-opacity="1"/></g><g transform="matrix(0.2588191330432892,-0.9659257531166077,-0.9659258127212524,-0.2588191330432892,158.92966694436973,207.12118945964372)"><path d="M60.03609085083008,118.46879291534424L63.18287085083008,156.35869291534425L66.22143085083007,156.35869291534425L70.91089085083007,118.77794791534424L60.03609085083008,118.46879291534424Z" fill="#FEDEC9" fill-opacity="1"/></g><g transform="matrix(-0.2588191330432892,-0.9659257531166077,0.9659258127212524,-0.2588191330432892,-130.67682319856158,138.54074365852208)"><path d="M-12.18539047241211,119.40629291534424L-9.03861047241211,157.29619291534425L-6.000050472412109,157.29619291534425L-1.310590472412109,119.71544791534424L-12.18539047241211,119.40629291534424Z" fill="#FEDEC9" fill-opacity="1"/></g></g></g></g><g filter="url(#master_svg3_5524_52056/5524_52000)"><ellipse cx="24.499999046325684" cy="24.5" rx="9.5" ry="9.5" fill="#FFFFFF" fill-opacity="1"/></g><g filter="url(#master_svg4_5524_52056/5524_52005)"><ellipse cx="24.5" cy="24.5" rx="15.5" ry="15.5" fill="#FFFFFF" fill-opacity="0.5"/></g></g></g></g></svg>