<svg xmlns="http://www.w3.org/2000/svg" xmlns:xlink="http://www.w3.org/1999/xlink" fill="none" version="1.1" width="188" height="28.409090042114258" viewBox="0 0 188 28.409090042114258"><g><path d="M48.318,22.234L45.042,21.272L41.48,22.234L34.512,22.234L34.798,20.31L36.514,20.31L39.244,19.556L36.774,18.828L34.512,18.828L36.254,15.136L35.63,14.382L41.558,14.382L41.324,14.876L56.3,14.876L55.832,18.334L51.308,19.582L53.83,20.31L55.546,20.31L55.26,22.234L48.318,22.234ZM57.392,7.232L56.456,13.888L35.708,13.888L36.644,7.232L57.392,7.232ZM44.002,4.268L57.808,4.268L57.522,6.218L42.494,6.218L42.13,6.712L36.202,6.712L38.178,4.138L37.658,3.514L44.574,3.514L44.002,4.268ZM40.908,16.852L45.458,18.23L50.45,16.852L40.908,16.852ZM41.22,9.702L52.088,9.702L52.166,9.208L41.298,9.208L41.22,9.702ZM51.776,11.912L51.828,11.418L40.96,11.418L40.908,11.912L51.776,11.912ZM66.726,20.31L67.896,18.854L68.312,15.864L67.298,15.864L66.414,22.234L62.462,22.234L63.346,15.864L62.384,15.864L61.76,20.31L58.796,20.31L59.758,13.394L63.71,13.394L63.84,12.406L59.42,12.406L59.758,9.936L64.204,9.936L64.412,8.454L63.034,8.454L62.8,9.442L59.836,9.442L60.954,4.996L63.918,4.996L63.658,5.984L64.75,5.984L64.958,4.502L64.126,3.514L69.066,3.514L68.702,5.984L72.42,5.984L72.082,8.454L68.364,8.454L68.156,9.936L72.602,9.936L72.264,12.406L67.792,12.406L67.662,13.394L71.614,13.394L70.808,19.244Q70.73,19.686,70.379,19.998Q70.028,20.31,69.586,20.31L66.726,20.31ZM72.914,21.792L75.228,19.322L77.282,4.736L76.658,4.008L81.338,4.008L79.076,20.024Q78.972,20.778,78.4,21.285Q77.828,21.792,77.074,21.792L72.914,21.792ZM76.346,5.984L74.474,19.322L71.77,19.322L73.642,5.984L76.346,5.984ZM103.438,22.208L93.61,22.208L94.624,14.798L92.648,14.798L88.384,22.208L83.366,22.208L87.63,14.798L84.276,14.798L85.446,6.452L88.93,6.452L88.41,4.372L87.708,3.566L92.778,3.566L93.506,6.452L96.834,6.452L97.926,4.294L97.25,3.566L102.476,3.566L101.072,6.452L104.608,6.452L103.438,14.798L99.356,14.798L98.758,19.27L102.918,19.27L103.984,18.282L103.438,22.208ZM99.018,12.458L99.538,8.766L89.814,8.766L89.294,12.458L99.018,12.458ZM115.06,14.46L115.866,8.818L122.548,8.818L123.9,6.972L121.3,6.972L120.39,8.012L115.996,8.012L119.428,4.138L118.934,3.54L124.316,3.54L123.276,4.71L128.684,4.71L128.372,7.05L127.046,8.818L129.282,8.818L128.476,14.46L129.334,14.46L128.996,16.8L123.978,16.8L128.112,22.26L123.926,22.26L121.222,18.308L117.66,22.156L113.032,22.156L118.206,16.8L113.864,16.8L114.202,14.46L115.06,14.46ZM110.354,6.608L110.692,4.242L110.068,3.514L115.008,3.514L114.566,6.608L115.58,6.608L115.242,9.078L114.202,9.078L113.864,11.574L114.93,11.262L114.54,13.966L113.474,14.278L112.616,20.44Q112.512,21.168,111.953,21.662Q111.394,22.156,110.64,22.156L106.48,22.156L108.508,19.816L109.106,15.578L107.416,16.072L107.806,13.342L109.47,12.848L110.016,9.078L108.378,9.078L108.716,6.608L110.354,6.608ZM124.082,10.716L123.562,14.408L125.174,14.408L125.694,10.716L124.082,10.716ZM118.908,10.794L118.388,14.46L119.974,14.46L120.494,10.794L118.908,10.794ZM140.618,14.174L142.62,7.414L146.416,7.414L145.22,11.808L146.832,11.808L148.652,6.452L142.23,6.452L142.568,3.982L152.994,3.982L152.656,6.452L150.862,11.808L152.786,11.808L151.564,20.492Q151.46,21.246,150.901,21.727Q150.342,22.208,149.666,22.208L140.826,22.208L142.984,19.946L147.664,19.946L148.47,14.174L140.618,14.174ZM141.58,4.06L141.19,6.764L138.252,6.764L136.796,10.326L140.696,10.326L139.084,21.714L131.102,21.714L132.038,15.136L130.686,15.136L134.118,6.764L132.324,6.764L132.714,4.06L141.58,4.06ZM147.82,15.63L147.508,17.892L140.592,17.892L140.904,15.63L147.82,15.63ZM136.016,19.348L136.952,12.718L135.886,12.718L134.95,19.348L136.016,19.348Z" fill="#FFFFFF" fill-opacity="1"/></g></svg>