<svg xmlns="http://www.w3.org/2000/svg" xmlns:xlink="http://www.w3.org/1999/xlink" fill="none" version="1.1" width="15" height="15" viewBox="0 0 15 15"><g><g><rect x="0" y="0" width="15" height="15" rx="0" fill="#FFFFFF" fill-opacity="0"/></g><g><g><rect x="1.875" y="1.875" width="11.25" height="11.25" rx="0" fill="#FFFFFF" fill-opacity="0"/></g><g transform="matrix(0.7071067690849304,0.7071067690849304,-0.7071067690849304,0.7071067690849304,2.4241748731025154,-5.209077266920417)"><path d="M14.95448,7.775809142456055Q14.90871,7.821579142456055,14.84399,7.821579142456055L7.656494,7.821579142456055Q7.625414,7.821579142456055,7.5966998,7.809679142456055Q7.5679856,7.797789142456055,7.5460087,7.775809142456055Q7.5240318,7.753839142456055,7.512138,7.725119142456054Q7.500244141,7.696409142456055,7.500244141,7.665329142456055L7.500244141,6.571579142456055Q7.500244141,6.540499142456055,7.512138,6.511779142456055Q7.5240318,6.4830691424560545,7.5460087,6.461089142456054Q7.5679856,6.439109142456054,7.5966998,6.427219142456055Q7.625414,6.415329142456055,7.656494,6.415329142456055L13.59424,6.415329142456055L13.59424,0.4775831424560547Q13.59424,0.4465031424560547,13.60613,0.4177886424560547Q13.61802,0.3890744424560547,13.64,0.3670974424560547Q13.66198,0.34512054245605467,13.69069,0.3332267424560547Q13.71941,0.3213329314560547,13.75049,0.3213329314560547L14.84424,0.3213329314560547Q14.87532,0.3213329314560547,14.904029999999999,0.3332267424560547Q14.93275,0.34512054245605467,14.95472,0.3670974424560547Q14.976700000000001,0.3890744424560547,14.98859,0.4177886424560547Q15.00049,0.4465031424560547,15.00049,0.4775831424560547L15.00049,7.6650791424560545Q15.00049,7.729799142456055,14.95472,7.775569142456055L14.95448,7.775809142456055Z" fill-rule="evenodd" fill="#363940" fill-opacity="1"/></g></g></g></svg>