<svg xmlns="http://www.w3.org/2000/svg" xmlns:xlink="http://www.w3.org/1999/xlink" fill="none" version="1.1" width="188" height="28.409090042114258" viewBox="0 0 188 28.409090042114258"><g><path d="M41.064,8.428L39.4,11.912L44.626,11.912L44.288,14.382L41.168,14.382L43.742,22.208L39.53,22.208L37.476,15.942L34.486,22.156L30.274,22.156L33.992,14.382L31.6,14.382L31.938,11.912L35.188,11.912L36.852,8.428L41.064,8.428ZM23.748,22.234L26.088,19.816L26.218,18.802L22.604,18.802L26.686,15.526L26.868,14.096L23.202,14.096L26.842,11.34L24.866,8.506L29.442,8.506L30.066,9.624L32.978,9.624L30.924,11.184L31.314,11.834L30.066,20.518Q29.936,21.272,29.364,21.753Q28.792,22.234,28.038,22.234L23.748,22.234ZM28.662,6.868L24.736,6.868L25.022,4.658L28.974,4.658L29,4.502L28.168,3.514L33.602,3.514L33.42,4.658L37.372,4.658L37.398,4.502L36.566,3.514L42,3.514L41.818,4.658L45.77,4.658L45.484,6.868L41.506,6.868L41.428,7.518L36.982,7.518L37.06,6.868L33.108,6.868L33.03,7.518L28.584,7.518L28.662,6.868ZM41.688,8.48L44.652,8.48L44.73,11.366L41.766,11.366L41.688,8.48ZM54.74,10.924L55.598,4.736L54.974,4.008L69.04,4.008L68.078,10.924L54.74,10.924ZM61.656,14.382L61.76,13.654L53.856,13.654L54.142,11.678L68.468,11.678L68.182,13.654L66.206,13.654L66.102,14.382L68.572,14.382L68.286,16.358L65.816,16.358L65.244,20.518Q65.114,21.272,64.542,21.753Q63.97,22.234,63.216,22.234L58.562,22.234L60.876,19.842L61.37,16.358L53.466,16.358L53.752,14.382L61.656,14.382ZM53.57,10.43L51.906,22.234L47.2,22.234L48.734,11.392L47.226,11.678L47.642,8.714L53.986,7.466L53.57,10.43ZM54.142,6.478L47.772,7.726L48.188,4.762L54.558,3.514L54.142,6.478ZM58.796,17.086L59.368,20.05L54.922,20.05L54.35,17.086L58.796,17.086ZM59.862,5.984L59.758,6.738L64.204,6.738L64.308,5.984L59.862,5.984ZM63.892,8.948L63.996,8.22L59.55,8.22L59.446,8.948L63.892,8.948ZM93.584,6.478L85.914,6.478L85.81,7.206L92.986,7.206L92.024,14.122L84.536,14.122L81.494,16.878L85.42,19.322L92.284,19.322L91.868,22.234L82.976,22.234L78.582,19.504L75.566,22.234L70.132,22.234L75.358,17.502L71.172,14.876L77.334,14.876L77.88,15.24L79.102,14.122L72.758,14.122L73.59,8.194L72.732,7.206L80.87,7.206L80.974,6.478L72.836,6.478L73.174,4.008L93.922,4.008L93.584,6.478ZM78.27,9.936L80.48,9.936L80.584,9.182L78.374,9.182L78.27,9.936ZM85.524,9.182L85.42,9.936L87.656,9.936L87.76,9.182L85.524,9.182ZM80.168,12.146L80.272,11.418L78.062,11.418L77.958,12.146L80.168,12.146ZM87.344,12.146L87.448,11.418L85.212,11.418L85.108,12.146L87.344,12.146ZM106.116,17.346L106.532,19.322L108.924,19.322L110.978,16.358L100.24,16.358L99.98,16.852L95.04,16.852L96.73,13.628L96.106,12.9L102.034,12.9L101.514,13.888L116.204,13.888L115.736,17.346L112.642,21.792L94.364,21.792L94.702,19.322L101.592,19.322L101.176,17.346L106.116,17.346ZM102.814,4.502L117.53,4.502L117.036,7.96L113.942,12.406L96.158,12.406L96.522,9.936L102.658,9.936L102.216,7.96L107.156,7.96L107.598,9.936L110.25,9.936L112.304,6.972L101.54,6.972L101.306,7.466L96.366,7.466L98.03,4.242L97.406,3.514L103.334,3.514L102.814,4.502ZM123.562,17.346L119.246,17.346L119.584,14.876L126.37,14.876L127.488,13.888L133.624,13.888L132.506,14.876L140.332,14.876L139.994,17.346L135.21,17.346L139.786,22.234L133.39,22.234L129.36,17.658L124.186,22.234L118.05,22.234L123.562,17.346ZM136.406,3.514L135.782,4.502L141.71,4.502L141.242,7.96L137.082,13.368L128.58,13.368L128.944,10.898L130.01,10.898L129.412,8.428L133.442,8.428L134.04,10.898L134.352,10.898L137.004,6.972L134.274,6.972L133.676,7.934L129.074,7.934L131.518,4.164L130.972,3.514L136.406,3.514ZM123.432,12.094L119.818,13.394L120.234,10.508L123.848,9.208L123.952,8.324L120.624,7.7L121.014,4.97L124.342,5.594L124.498,4.554L123.77,3.514L129.282,3.514L127.904,13.342L123.276,13.342L123.432,12.094ZM157.284,9.39L156.452,9.39L156.79,6.894L157.908,6.894L158.532,4.372L157.778,3.54L162.302,3.54L161.47,6.894L165.682,6.894L163.784,20.44Q163.68,21.194,163.238,21.675Q162.796,22.156,162.042,22.156L158.064,22.156L160.3,19.634L161.73,9.39L160.846,9.39L157.7,22.182L154.164,22.182L157.284,9.39ZM150.94,20.336L151.902,13.524L150.966,13.524L148.964,22.234L145.792,22.234L148.626,9.962L148.106,9.962L148.444,7.57L155.75,7.57L155.412,9.962L151.798,9.962L151.46,11.418L155.256,11.418L153.982,20.44Q153.878,21.194,153.293,21.701Q152.708,22.208,151.954,22.208L149.224,22.208L150.94,20.336ZM156.53,4.008L156.192,6.426L148.236,6.426L145.22,22.156L141.918,22.156L145.064,4.944L144.57,4.008L156.53,4.008Z" fill="#FFFFFF" fill-opacity="1"/></g></svg>