<svg xmlns="http://www.w3.org/2000/svg" xmlns:xlink="http://www.w3.org/1999/xlink" fill="none" version="1.1" width="265" height="25.999998092651367" viewBox="0 0 265 25.999998092651367"><g><path d="M94.8,19.322L97.972,19.322L101.378,9.442L106.318,9.442L102.912,19.322L106.422,19.322L106.084,21.792L85.336,21.792L85.674,19.322L89.86,19.322L88.534,9.416L93.474,9.416L94.8,19.322ZM95.528,5.49L95.658,4.502L94.8,3.514L100.728,3.514L100.442,5.49L107.878,5.49L107.514,7.96L87.754,7.96L88.118,5.49L95.528,5.49ZM119.188,15.63L119.292,21.792L115.6,21.792L115.574,20.57L108.424,21.792L110.92,4.008L121.788,4.008L120.332,14.382L113.156,14.382L112.636,18.178L115.496,17.71L115.47,15.63L119.188,15.63ZM128.626,6.478L126.39,6.478L124.18,22.234L120.488,22.234L123.036,4.008L132.656,4.008L130.68,18.048Q130.576,18.802,130.004,19.309Q129.432,19.816,128.678,19.816L125.246,19.816L127.014,17.97L128.626,6.478ZM117.004,11.912L117.212,10.43L113.728,10.43L113.52,11.912L117.004,11.912ZM114.274,6.478L114.066,7.96L117.55,7.96L117.758,6.478L114.274,6.478ZM142.328,11.47L142.458,10.612L140.118,10.612L140.95,4.684L142.926,4.684L143.264,4.086L142.77,3.54L146.696,3.54L146.02,4.684L148.75,4.684L147.918,10.612L145.552,10.612L145.422,11.47L148.048,11.47L147.788,13.446L143.524,13.446L143.29,14.018L147.736,14.018L147.242,17.476Q147.164,18.074,146.67,18.503Q146.176,18.932,145.422,18.932L142.822,18.932L143.992,17.996L144.304,15.838L142.614,15.838L141.47,18.88L139.442,18.88L141.236,19.322L154.73,19.322L154.392,21.792L139.416,21.792L136.79,21.038L136.322,21.766L132.448,21.766L134.164,19.218L135.386,10.43L134.554,10.43L134.892,7.96L139.572,7.96L138.09,18.542L138.714,18.698L140.742,13.446L139.442,13.446L139.702,11.47L142.328,11.47ZM153.976,3.54L153.196,5.464L156.472,5.464L156.134,7.882L155.38,7.882L154.886,11.418L153.04,14.512L154.808,18.828L152.26,18.828L151.35,16.514L150.024,18.828L147.424,18.828L150.024,14.382L148.412,10.248L151.324,10.248L151.766,11.366L152.338,10.404L152.676,7.882L152.208,7.882L151.532,9.598L148.464,9.598L150.804,3.54L153.976,3.54ZM139.416,4.008L139.806,6.972L135.906,6.972L135.516,4.008L139.416,4.008ZM143.264,6.868L145.76,6.868L145.864,6.244L143.368,6.244L143.264,6.868ZM145.448,9.13L145.526,8.558L143.03,8.558L142.952,9.13L145.448,9.13ZM171.734,22.156L172.904,20.726L173.086,19.322L167.912,19.322L167.522,22.156L163.258,22.156L164.636,12.406L178.338,12.406L177.194,20.44Q177.09,21.194,176.726,21.675Q176.362,22.156,175.66,22.156L171.734,22.156ZM169.94,7.31L170.018,6.66L165.364,6.66L165.624,4.71L170.304,4.71L170.33,4.528L169.394,3.566L174.984,3.566L174.802,4.71L179.508,4.71L179.248,6.66L174.542,6.66L174.438,7.31L178.338,7.31L178.052,9.286L174.178,9.286L174.074,9.936L179.17,9.936L178.884,11.912L164.038,11.912L164.324,9.936L169.55,9.936L169.654,9.286L165.546,9.286L165.832,7.31L169.94,7.31ZM157.252,22.156L158.786,11.132L157.382,11.132L157.746,8.584L163.544,8.584L162.192,18.282L163.466,17.918L163.076,20.596L157.252,22.156ZM162.998,4.008L163.648,7.232L159.566,7.232L158.916,4.008L162.998,4.008ZM168.172,17.58L173.346,17.58L173.45,16.826L168.276,16.826L168.172,17.58ZM168.51,15.084L173.684,15.084L173.788,14.382L168.614,14.382L168.51,15.084Z" fill="#FFFFFF" fill-opacity="1"/></g></svg>