<svg xmlns="http://www.w3.org/2000/svg" xmlns:xlink="http://www.w3.org/1999/xlink" fill="none" version="1.1" width="16.000001907348633" height="16.009859085083008" viewBox="0 0 16.000001907348633 16.009859085083008"><g><path d="M11.7934,0.495249L12.8614,3.13983L15.5051,4.20923C15.9102,4.37302,16.1059,4.83448,15.9421,5.23984L14.8252,8.00475L15.9421,10.77C16.1059,11.1754,15.9102,11.6369,15.5051,11.8007L12.8609,12.8693L11.7934,15.5147C11.6297,15.92,11.1685,16.1158,10.7634,15.952L7.99982,14.8343L5.23661,15.952C4.8315,16.1158,4.37033,15.92,4.20664,15.5147L3.1379,12.8688L0.494944,11.8007C0.0897947,11.6369,-0.105902,11.1754,0.0578784,10.77L1.17408,8.00475L0.0578789,5.23984C-0.105902,4.83448,0.089795,4.37302,0.494944,4.20923L3.1383,3.14063L4.20664,0.495249C4.37033,0.08985,4.8315,-0.105968,5.23661,0.057914L7.99982,1.1748L10.7634,0.057914C11.1685,-0.105967,11.6297,0.0898504,11.7934,0.495249Z" fill-rule="evenodd" fill="#00B853" fill-opacity="1"/></g></svg>