<svg xmlns="http://www.w3.org/2000/svg" xmlns:xlink="http://www.w3.org/1999/xlink" fill="none" version="1.1" width="105" height="36.21685791015625" viewBox="0 0 105 36.21685791015625"><g><g><g><path d="M0.8801831909179687,32.46185642578125L0.6837081909179688,31.80523642578125C1.6149961909179686,30.75541642578125,2.294788190917969,29.54044642578125,2.715248190917969,28.17608642578125L3.292878190917969,28.45132542578125C3.068888190917969,29.13153842578125,2.7859781909179686,29.78031642578125,2.440178190917969,30.38188642578125L2.440178190917969,36.12246642578125L1.8193181909179688,36.12246642578125L1.8193181909179688,31.34127642578125C1.5246011909179686,31.73839642578125,1.2180891909179687,32.10799642578125,0.8801831909179687,32.46185642578125ZM3.4461581909179686,31.70300642578125L2.9117481909179688,31.37664642578125C3.5679681909179686,30.42119642578125,4.039508190917969,29.35957642578125,4.334228190917969,28.19571722578125L4.919718190917969,28.31760542578125C4.8332781909179685,28.65180842578125,4.731108190917968,28.97422842578125,4.624998190917969,29.27305642578125L8.295158190917968,29.27305642578125L8.295158190917968,29.67805642578125C8.157638190917968,30.21278642578125,7.984738190917969,30.73967642578125,7.768598190917968,31.25475642578125L7.175238190917969,31.08175642578125C7.371718190917969,30.72002642578125,7.536748190917969,30.32289642578125,7.666428190917968,29.87465642578125L4.401018190917968,29.87465642578125C4.125948190917969,30.54701642578125,3.8076581909179685,31.14858642578125,3.4461581909179686,31.70300642578125ZM4.746818190917969,31.87600642578125C4.436398190917968,33.07523642578125,4.031648190917968,34.12504642578125,3.5325881909179686,35.02940642578125L2.9549681909179686,34.82100642578125C3.4186481909179687,34.01103642578125,3.835168190917969,32.97693642578125,4.184898190917968,31.71871642578125L4.742878190917969,31.87206642578125L4.746818190917969,31.87600642578125ZM4.349928190917969,36.06350642578125L4.220248190917969,35.47765642578125C4.581758190917968,35.50517642578125,4.9354281909179685,35.52089642578125,5.261578190917969,35.52089642578125C5.477698190917969,35.52089642578125,5.587728190917969,35.41079642578125,5.587728190917969,35.18669642578125L5.587728190917969,30.60209642578125L6.188958190917969,30.60209642578125L6.188958190917969,35.34004642578125C6.188958190917969,35.82366642578125,5.9492681909179685,36.06352642578125,5.473788190917968,36.06352642578125L4.346028190917968,36.06352642578125L4.349928190917969,36.06350642578125ZM8.511278190917968,34.93504642578125L7.969008190917969,35.17488642578125C7.6232081909179685,33.91666642578125,7.238128190917969,32.79608642578125,6.813728190917969,31.83276642578125L7.363868190917969,31.65188642578125C7.803968190917969,32.67025642578125,8.181208190917967,33.76331642578125,8.50734819091797,34.93502642578125L8.511278190917968,34.93504642578125Z" fill="#1A2033" fill-opacity="1"/></g><g><path d="M16.57458614013672,30.80656642578125C16.739616140136718,30.58243642578125,16.86929614013672,30.35046642578125,16.96359614013672,30.10666642578125C16.19734614013672,30.142066425781252,15.403606140136718,30.16565642578125,14.586266140136718,30.19315642578125L14.49195714013672,29.65055642578125C15.049936140136719,29.51294642578125,15.757246140136719,29.02145742578125,16.609956140136717,28.17608642578125L17.211186140136718,28.38448942578125C16.712136140136717,28.90350542578125,16.21310614013672,29.31634642578125,15.721916140136718,29.63483642578125C16.87718614013672,29.59943642578125,17.96173614013672,29.54047642578125,18.995186140136717,29.46970642578125C18.74369614013672,29.245576425781252,18.480426140136718,29.02145742578125,18.19358614013672,28.78948842578125L18.669056140136718,28.48672342578125C19.52175614013672,29.15121742578125,20.17799614013672,29.72919642578125,20.62593614013672,30.22068642578125L20.10724614013672,30.58241642578125C19.934346140136718,30.37401642578125,19.737866140136717,30.17741642578125,19.52175614013672,29.96903642578125C18.90088614013672,30.00443642578125,18.25646614013672,30.04768642578125,17.592386140136718,30.08305642578125C17.498076140136718,30.33470642578125,17.376266140136718,30.57454642578125,17.23871614013672,30.80653642578125L21.164276140136717,30.80653642578125L21.164276140136717,31.37666642578125L19.01876614013672,31.37666642578125C19.53746614013672,31.89568642578125,20.327296140136717,32.30853642578125,21.39610614013672,32.60735642578125L21.12890614013672,33.17749642578125C19.83610614013672,32.713526425781254,18.91659614013672,32.11587642578125,18.36254614013672,31.37666642578125L16.80254614013672,31.37666642578125C16.130596140136717,32.12765642578125,15.124646140136718,32.73712642578125,13.780768140136718,33.22073642578125L13.497856140136719,32.67025642578125C14.58239614013672,32.35177642578125,15.435096140136718,31.91927642578125,16.048096140136717,31.37666642578125L13.670755140136718,31.37666642578125L13.670755140136718,30.80653642578125L16.57458614013672,30.80656642578125ZM20.24474614013672,33.25219642578125C19.450976140136717,34.66376642578125,17.729856140136718,35.65459642578125,15.085316140136719,36.21685642578125L14.731646140136718,35.73323642578125C17.33297614013672,35.18275642578125,18.98729614013672,34.266646425781246,19.69066614013672,33.00842642578125L20.24080614013672,33.24826642578125L20.24474614013672,33.25219642578125ZM19.04625614013672,32.717466425781254C18.040306140136718,33.86557642578125,16.76321614013672,34.56940642578125,15.21499614013672,34.84462642578125L14.861326140136718,34.36884642578125C16.45277614013672,34.10935642578125,17.68663614013672,33.44485642578125,18.562906140136718,32.38717642578125L19.046226140136717,32.713526425781254L19.04625614013672,32.717466425781254ZM17.95383614013672,31.966486425781248C17.37621614013672,32.68996642578125,16.48027614013672,33.26007642578125,15.266056140136719,33.68078642578125L14.998856140136718,33.19717642578125C16.118746140136718,32.81969642578125,16.94395614013672,32.30855642578125,17.470496140136717,31.67158642578125L17.95383614013672,31.966486425781248Z" fill="#1A2033" fill-opacity="1"/></g><g><path d="M31.180498269042968,33.3583699609375L31.180498269042968,33.9520999609375L26.31578826904297,33.9520999609375L26.31578826904297,33.3583699609375L31.180498269042968,33.3583699609375ZM28.441658269042968,28.2390125609375L28.319848269042968,29.3949999609375L33.53821826904297,29.3949999609375L33.53821826904297,29.9887199609375L28.256978269042968,29.9887199609375L28.111598269042968,31.3924199609375L32.95272826904297,31.3924199609375C32.95272826904297,33.7358499609375,32.78769826904297,35.0884199609375,32.46154826904297,35.4619399609375C32.14325826904297,35.8158199609375,31.45559826904297,35.9966699609375,30.40249826904297,35.9966699609375C30.12742826904297,35.9966699609375,29.84451826904297,35.9809499609375,29.54979826904297,35.9612699609375L29.38476826904297,35.3911399609375C29.80522826904297,35.426539960937504,30.09993826904297,35.4501299609375,30.272838269042968,35.4501299609375C31.24734826904297,35.4501299609375,31.83283826904297,35.2849999609375,32.02146826904297,34.958639960937504C32.21793826904297,34.6047599609375,32.32404826904297,33.6060599609375,32.32404826904297,31.9664599609375L27.42397826904297,31.9664599609375L27.82872826904297,28.1839599609375L28.44172826904297,28.2350767609375L28.441658269042968,28.2390125609375Z" fill="#1A2033" fill-opacity="1"/></g><g><path d="M42.108406618652346,35.58775599609375L41.50718661865234,35.58775599609375L41.50718661865234,35.09626599609375L39.939320618652346,35.09626599609375L39.939320618652346,35.83546599609375L39.338096618652344,35.83546599609375L39.338096618652344,29.70953599609375L40.139704618652345,29.70953599609375C40.312603618652346,29.22591599609375,40.43441661865234,28.72655699609375,40.509076618652344,28.21147729609375L41.12994661865234,28.29796789609375C41.02777661865235,28.80517599609375,40.898096618652346,29.28094599609375,40.72519661865234,29.70953599609375L42.11231661865234,29.70953599609375L42.11231661865234,35.58775599609375L42.108406618652346,35.58775599609375ZM41.50718661865234,32.07261599609375L41.50718661865234,30.29932599609375L39.939320618652346,30.29932599609375L39.939320618652346,32.07261599609375L41.50718661865234,32.07261599609375ZM41.50718661865234,34.51825599609375L41.50718661865234,32.63094599609375L39.939320618652346,32.63094599609375L39.939320618652346,34.51825599609375L41.50718661865234,34.51825599609375ZM46.434756618652344,35.02546599609375C46.348326618652344,35.68208599609375,45.951436618652345,36.01631599609375,45.22840661865234,36.01631599609375C45.055506618652345,36.01631599609375,44.76472661865235,36.00059599609375,44.348196618652345,35.98091599609375L44.20281661865234,35.41078599609375C44.56431661865234,35.42650599609375,44.874766618652345,35.43831599609375,45.14196661865235,35.43831599609375C45.54671661865234,35.43831599609375,45.77854661865234,35.21419599609375,45.849266618652344,34.77381599609375C45.900356618652346,34.290205996093746,45.93570661865235,32.79998599609375,45.951436618652345,30.31895599609375L43.581946618652346,30.31895599609375C43.34225661865234,30.86155599609375,43.05538661865234,31.35304599609375,42.721386618652346,31.79342599609375L42.35201661865234,31.30193599609375C42.95323661865234,30.45655599609375,43.357956618652345,29.42246599609375,43.581946618652346,28.19964599609375L44.194946618652345,28.27828909609375C44.092776618652344,28.78549699609375,43.970956618652345,29.269135996093752,43.817706618652345,29.71735599609375L46.564416618652345,29.71735599609375C46.564416618652345,32.579805996093754,46.52119661865234,34.35307599609375,46.434756618652344,35.02546599609375ZM45.02406661865234,33.58639599609375L44.532876618652345,33.93240599609375C44.179206618652344,33.36227599609375,43.70769661865234,32.72530599609375,43.110396618652345,32.01756599609375L43.609456618652345,31.70695599609375C44.230316618652346,32.42256599609375,44.69399661865234,33.05166599609375,45.020156618652344,33.58642599609375L45.02406661865234,33.58639599609375Z" fill="#1A2033" fill-opacity="1"/></g><g><path d="M62.08201990966797,36.05566013671875L61.94449990966797,35.45406013671875C62.392469909667966,35.469780136718754,62.81292990966797,35.48946013671875,63.21764990966797,35.48946013671875C63.45734990966797,35.48946013671875,63.58702990966797,35.34398013671875,63.58702990966797,35.05696013671875L63.58702990966797,30.40156013671875L63.30411990966797,30.40156013671875C62.47892990966797,32.21023013671875,61.05645990966797,33.68470013671875,59.04062490966797,34.83284013671875L58.71446990966797,34.30595013671875C60.55739990966797,33.28758013671875,61.88556990966797,31.98611013671875,62.68324990966797,30.40156013671875L58.85985890966797,30.40156013671875L58.85985890966797,29.80784013671875L63.58704990966797,29.80784013671875L63.58704990966797,28.23114013671875L64.21575990966797,28.23114013671875L64.21575990966797,29.80784013671875L66.37697990966797,29.80784013671875L66.37697990966797,30.40156013671875L64.21575990966797,30.40156013671875L64.21575990966797,35.21029013671875C64.21575990966797,35.76861013671875,63.94855990966797,36.05566013671875,63.43379990966797,36.05566013671875L62.08201990966797,36.05566013671875Z" fill="#1A2033" fill-opacity="1"/></g><g><path d="M71.62282498740234,32.70960170898437L71.62282498740234,32.13946170898438L79.24604958740234,32.13946170898438L79.24604958740234,32.70960170898437L75.84311958740234,32.70960170898437L75.84311958740234,33.68470170898438L78.32262958740235,33.68470170898438L78.32262958740235,34.23518170898438L75.84311958740234,34.23518170898438L75.84311958740234,35.379361708984376C76.25570958740235,35.414751708984376,76.75476958740235,35.438341708984375,77.32454958740234,35.438341708984375C78.06329958740234,35.438341708984375,78.69199958740235,35.43047170898438,79.20285958740234,35.41082170898437L79.02995958740235,35.99667170898437C78.40908958740235,35.99667170898437,77.85897958740235,35.988801708984376,77.36778958740234,35.98095170898438C75.94531958740234,35.98095170898438,74.98258958740234,35.870851708984375,74.47568958740234,35.65460170898437C74.03558958740234,35.458001708984376,73.63870958740235,35.076621708984376,73.29683958740235,34.506481708984374C72.96283958740234,35.14345170898437,72.53058458740234,35.670341708984374,72.01188858740234,36.09106170898438L71.60713958740234,35.583851708984376C72.40090458740234,34.94688170898438,72.94317958740234,34.085791708984374,73.22608958740234,33.008451708984374L73.81157958740235,33.11068170898437C73.72513958740234,33.42917170898438,73.63080958740234,33.731931708984376,73.51686958740234,34.01502170898438C73.87836958740235,34.61661170898437,74.29096958740234,34.998001708984376,74.73892958740234,35.16313170898437C74.87645958740234,35.206381708984374,75.03364958740234,35.24962170898438,75.21440958740234,35.285021708984374L75.21440958740234,32.70962170898437L71.62282498740234,32.70960170898437ZM78.08290958740234,28.514251708984375L78.08290958740234,31.506431708984376L72.84488958740235,31.506431708984376L72.84488958740235,28.514251708984375L78.08290958740234,28.514251708984375ZM77.46990958740234,29.764601708984376L77.46990958740234,29.048986708984376L73.45788958740235,29.048986708984376L73.45788958740235,29.764601708984376L77.46990958740234,29.764601708984376ZM77.46990958740234,30.271801708984373L73.45788958740235,30.271801708984373L73.45788958740235,30.979541708984375L77.46990958740234,30.979541708984375L77.46990958740234,30.271801708984373Z" fill="#1A2033" fill-opacity="1"/></g><g><path d="M84.96350408349609,29.9021928125C84.94779508349609,30.7632828125,84.86133308349609,31.5811228125,84.7041680834961,32.3596428125L84.2208480834961,32.222032812500004C84.3583710834961,31.4828328125,84.4448320834961,30.6964428125,84.4605410834961,29.8707528125L84.9595950834961,29.9061528125L84.96350408349609,29.9021928125ZM86.0048280834961,28.2901165625L86.0048280834961,30.5391628125C86.3074080834961,30.2128028125,86.5628080834961,29.8667928125,86.7710880834961,29.5050628125L87.11687808349609,29.9375628125C86.8221680834961,30.3779428125,86.45279808349609,30.7986528125,86.0048280834961,31.2115028125L86.0048280834961,31.4199028125C85.9969580834961,32.0057528125,85.96160808349609,32.5404928125,85.90265808349609,33.0398528125C86.24845808349609,33.4880928125,86.5903180834961,33.9953028125,86.9518280834961,34.5575628125L86.6060280834961,35.0726428125C86.29560808349609,34.4789228125,86.02053808349609,34.0031728125,85.7965580834961,33.6492928125C85.58827808349609,34.6912628125,85.2385780834961,35.5208928125,84.72774408349609,36.122462812500004L84.27977608349609,35.7253328125C85.0381650834961,34.8288428125,85.41540808349609,33.3976428125,85.4350480834961,31.4159428125L85.4350480834961,28.2861328125L86.0048280834961,28.2861328125L86.0048280834961,28.2901165625ZM91.6043580834961,28.4709928125L91.6043580834961,30.7357828125L90.73592808349609,30.7357828125L90.73592808349609,31.2508628125L91.89906808349609,31.2508628125L91.89906808349609,31.7148228125L90.73592808349609,31.7148228125L90.73592808349609,32.265302812499996L92.0522980834961,32.265302812499996L92.0522980834961,32.7489228125L90.7791480834961,32.7489228125C91.07385808349609,33.1263928125,91.52966808349609,33.4802528125,92.1662780834961,33.7908828125L91.81260808349609,34.2391328125C91.53753808349609,34.0661228125,91.29784808349609,33.885242812499996,91.08956808349609,33.7122428125C90.87345808349609,33.9363628125,90.63375808349609,34.1329628125,90.35868808349609,34.3138328125L90.08361808349609,33.9442328125C90.32331808349609,33.7791028125,90.53942808349609,33.5903528125,90.7280680834961,33.3859128125C90.5197880834961,33.1696628125,90.36655808349609,32.9534128125,90.24474808349609,32.7489428125L88.81439808349609,32.7489428125C88.66114808349609,33.0084328125,88.4528980834961,33.2404328125,88.21317808349609,33.4488328125C88.4646680834961,33.6375628125,88.6768580834961,33.8184328125,88.8497580834961,33.9993128125L88.5157580834961,34.333512812500004C88.3428580834961,34.1447928125,88.1188780834961,33.9363828125,87.8438080834961,33.7319228125C87.6198180834961,33.8774028125,87.3879980834961,34.0150028125,87.1286380834961,34.1369228125L86.8260580834961,33.6375628125C87.4626280834961,33.397712812500004,87.94594808349609,33.1028228125,88.2642380834961,32.7489428125L86.85353808349609,32.7489428125L86.85353808349609,32.2653228125L88.37031808349609,32.2653228125L88.37031808349609,31.7148428125L87.19146808349609,31.7148428125L87.19146808349609,31.2508828125L88.37031808349609,31.2508828125L88.37031808349609,30.7358028125L87.50189808349609,30.7358028125L87.50189808349609,28.4710168125L91.6082180834961,28.4710168125L91.6043580834961,28.4709928125ZM88.8812180834961,34.9271928125C88.4332580834961,35.2220828125,87.8752680834961,35.4855128125,87.2033180834961,35.7096328125L86.97146808349609,35.1749028125C87.6591280834961,34.9861828125,88.2564180834961,34.7424028125,88.75544808349609,34.4671628125L88.8851280834961,34.9232528125L88.8812180834961,34.9271928125ZM91.05030808349609,29.4185728125L91.05030808349609,28.9192128125L88.0363980834961,28.9192128125L88.0363980834961,29.4185728125L91.05030808349609,29.4185728125ZM91.05030808349609,29.8235728125L88.0363980834961,29.8235728125L88.0363980834961,30.3150628125L91.05030808349609,30.3150628125L91.05030808349609,29.8235728125ZM88.5432880834961,36.1146328125L88.4214780834961,35.5799028125C88.6297480834961,35.6074228125,88.8183580834961,35.6231428125,89.00696808349609,35.6231428125C89.1444880834961,35.6231428125,89.2230880834961,35.5366528125,89.2230880834961,35.3636528125L89.2230880834961,33.0556228125L89.80857808349609,33.0556228125L89.80857808349609,35.5012628125C89.80857808349609,35.9062528125,89.6002980834961,36.1146328125,89.19557808349609,36.1146328125L88.5393580834961,36.1146328125L88.5432880834961,36.1146328125ZM90.1897480834961,30.7357828125L88.9165980834961,30.7357828125L88.9165980834961,31.2508628125L90.1897480834961,31.2508628125L90.1897480834961,30.7357828125ZM90.1897480834961,32.2692328125L90.1897480834961,31.7187628125L88.9165980834961,31.7187628125L88.9165980834961,32.2692328125L90.1897480834961,32.2692328125ZM91.93837808349609,35.3872428125L91.6200880834961,35.8866028125C91.10532808349609,35.4816028125,90.5709280834961,35.1709928125,90.0286480834961,34.9468728125L90.3115680834961,34.5261528125C90.9049180834961,34.7659928125,91.44718808349609,35.0530428125,91.93837808349609,35.3872428125Z" fill="#1A2033" fill-opacity="1"/></g><g><path d="M98.24126503662109,33.77909711914062C98.05265503662109,34.45145711914063,97.7854500366211,35.029437119140624,97.4396520366211,35.52092711914062L96.9759750366211,35.218167119140624C97.32963903662109,34.75419711914063,97.5889750366211,34.24305711914062,97.74223103662109,33.684707119140626L98.24126503662109,33.77909711914062ZM98.8621250366211,29.005744119140626L98.8621250366211,28.223297119140625L99.44761503662109,28.223297119140625L99.44761503662109,29.005744119140626L101.03121503662109,29.005744119140626L101.03121503662109,29.556217119140626L99.44761503662109,29.556217119140626L99.44761503662109,30.315077119140625L100.83474503662109,30.315077119140625L100.83474503662109,30.849817119140624L97.3374820366211,30.849817119140624L97.3374820366211,30.315077119140625L98.8621250366211,30.315077119140625L98.8621250366211,29.556217119140626L97.03490303662109,29.556217119140626L97.03490303662109,29.005744119140626L98.8621250366211,29.005744119140626ZM101.1255150366211,32.72925711914063L101.1255150366211,33.27185711914063L99.43584503662109,33.27185711914063L99.43584503662109,35.42654711914062C99.43584503662109,35.87478711914063,99.19614503662109,36.106757119140624,98.71280503662109,36.106757119140624L97.98192503662109,36.106757119140624L97.86011103662109,35.54842711914063C98.0840950366211,35.575957119140625,98.30807503662109,35.59167711914063,98.5163250366211,35.59167711914063C98.7403150366211,35.59167711914063,98.8503250366211,35.48944711914062,98.8503250366211,35.288907119140625L98.8503250366211,33.27183711914063L97.0938550366211,33.27183711914063L97.0938550366211,32.729227119140624L101.1255150366211,32.72925711914063ZM100.5675350366211,31.530027119140627L100.5675350366211,32.07263711914062L97.62041803662109,32.07263711914062L97.62041803662109,31.530027119140627L100.5675350366211,31.530027119140627ZM100.9879950366211,34.89180711914062L100.5046750366211,35.108057119140625C100.3317750366211,34.60869711914062,100.13530503662109,34.16047711914062,99.9270550366211,33.77906711914063L100.4261050366211,33.61393711914062C100.6343850366211,34.01106711914063,100.82298503662109,34.43177711914063,100.9840850366211,34.887877119140626L100.9879950366211,34.89180711914062ZM103.03918503662109,30.814417119140625C103.03918503662109,31.392397119140625,103.00380503662109,31.927157119140624,102.9527450366211,32.406837119140626C103.3299850366211,33.767287119140626,103.97833503662109,34.85247711914062,104.8899850366211,35.654597119140625L104.47738503662109,36.13036711914062C103.7386450366211,35.40688711914063,103.1688650366211,34.526147119140624,102.7719750366211,33.47632711914063C102.75626503662109,33.53531711914063,102.7444650366211,33.59821711914063,102.7287550366211,33.66505711914063C102.46155503662109,34.683427119140624,101.8603350366211,35.509117119140626,100.91333503662109,36.165747119140626L100.53609503662109,35.70965711914062C101.3534350366211,35.13951711914063,101.8957050366211,34.43571711914063,102.16291503662109,33.57068711914062C102.3711850366211,32.84720711914063,102.4733350366211,31.935027119140624,102.4733350366211,30.814417119140625L103.04311503662109,30.814417119140625L103.03918503662109,30.814417119140625ZM102.46155503662109,28.341250119140625C102.4104750366211,28.789494119140624,102.3397450366211,29.194468119140623,102.26508503662109,29.571937119140625L104.54024503662109,29.571937119140625L104.54024503662109,29.949417119140627C104.42630503662109,30.680747119140626,104.2809150366211,31.404227119140625,104.09228503662109,32.11983711914063L103.5146550366211,31.954707119140625C103.68755503662109,31.419967119140626,103.8329450366211,30.818377119140624,103.9468950366211,30.126357119140625L102.1314650366211,30.126357119140625C101.93499503662109,30.849837119140624,101.6756550366211,31.435687119140624,101.35736503662109,31.883907119140623L100.88189503662109,31.549707119140624C101.40845503662109,30.755447119140626,101.7424550366211,29.654517119140625,101.8996450366211,28.239040119140626L102.46942503662109,28.333402119140626L102.46155503662109,28.341250119140625Z" fill="#1A2033" fill-opacity="1"/></g></g><g><g><g><g><path d="M4.84901,0L17.3173,0C19.9933,0,22.1663,2.17041,22.1663,4.85198L22.1663,17.3279C22.1663,20.0056,19.9972,22.1799,17.3173,22.1799L4.84901,22.1799C2.17302,22.1799,0,20.0095,0,17.328L0,4.85199C0,2.17436,2.16909,0.0000119993,4.84901,0Z" fill="#FFFFFF" fill-opacity="1"/></g><g><g transform="matrix(0,-1,1,0,-13.277748107910156,25.08196258544922)"><rect x="5.902107238769531" y="19.179855346679688" width="16.179826736450195" height="3.626922369003296" rx="1.813461184501648" fill="#0091FF" fill-opacity="1"/></g><g><rect x="3.4737014770507812" y="5.646242141723633" width="15.21500015258789" height="3.6291565895080566" rx="1.8145782947540283" fill="#FF5500" fill-opacity="1"/></g><g transform="matrix(0,-1,1,0,-6.542549133300781,31.817161560058594)"><rect x="12.637306213378906" y="19.179855346679688" width="16.179826736450195" height="3.626922369003296" rx="1.813461184501648" fill="#00C85A" fill-opacity="1"/></g><g transform="matrix(0,-1,1,0,-6.542549133300781,31.817161560058594)"><rect x="12.637306213378906" y="19.179855346679688" width="16.179826736450195" height="3.626922369003296" rx="1.813461184501648" fill="#00C85A" fill-opacity="1"/></g><g><rect x="3.4737014770507812" y="12.904542922973633" width="15.21500015258789" height="3.6291565895080566" rx="1.8145782947540283" fill="#FFBE28" fill-opacity="1"/></g><g><g><path d="M9.529024006347656,5.646215776367187L9.529024006347656,4.812655776367188C9.529024006347656,3.8100187763671878,8.715614006347657,3.0000457763671875,7.717534006347656,3.0000457763671875C6.715519006347656,3.0000457763671875,5.906044006347656,3.8139547763671873,5.906044006347656,4.812655776367188L5.906044006347656,5.646215776367187L9.532954006347657,5.646215776367187L9.529024006347656,5.646215776367187Z" fill="#0091FF" fill-opacity="1"/></g><g><path d="M5.902103801191406,9.275375366210938L5.902103801191406,17.367245366210938C5.902103801191406,18.369885366210937,6.715511471191406,19.179855366210937,7.713590471191406,19.179855366210937C8.715610471191406,19.179855366210937,9.525080471191407,18.365945366210937,9.525080471191407,17.367245366210938L9.525080471191407,9.275375366210938L5.898170471191406,9.275375366210938L5.902103801191406,9.275375366210938Z" fill="#0091FF" fill-opacity="1"/></g></g></g></g><g><path d="M17.3173,0.231982C19.8636,0.231982,21.9344,2.3041,21.9344,4.85198L21.9344,17.3279C21.9344,19.8758,19.8636,21.9479,17.3173,21.9479L4.84901,21.9479C2.3027,21.9479,0.231851,19.8758,0.231851,17.3279L0.231851,4.85198C0.231851,2.3041,2.3027,0.231982,4.84901,0.231982L17.3173,0.231982ZM17.3173,0L4.84901,0C2.17302,0,0,2.17041,0,4.85198L0,17.3279C0,20.0056,2.16909,22.1799,4.84901,22.1799L17.3173,22.1799C19.9933,22.1799,22.1663,20.0095,22.1663,17.328L22.1663,4.85199C22.1663,2.17436,19.9972,0.0000119993,17.3173,0Z" fill="#E6E6E6" fill-opacity="1"/></g></g><g><g><path d="M36.94116244628906,4.163909912109375L30.052752446289063,4.163909912109375C29.781616446289064,4.163909912109375,29.557632446289062,4.384095912109375,29.557632446289062,4.659334912109375L29.557632446289062,17.516709912109377C29.557632446289062,17.788009912109374,29.777683446289064,18.012109912109374,30.052752446289063,18.012109912109374L31.52631244628906,18.012109912109374C31.797452446289064,18.012109912109374,32.02143244628906,17.791909912109375,32.02143244628906,17.516709912109377L32.02143244628906,13.065769912109374L36.44998244628906,13.065769912109374C36.72111244628906,13.065769912109374,36.94510244628906,12.845579912109375,36.94510244628906,12.570349912109375L36.94510244628906,11.088019912109374C36.94510244628906,10.816709912109374,36.72505244628906,10.592589912109375,36.44998244628906,10.592589912109375L32.02143244628906,10.592589912109375L32.02143244628906,6.637089912109375L36.94510244628906,6.637089912109375C37.21623244628906,6.637089912109375,37.44022244628906,6.4168999121093755,37.44022244628906,6.141659912109375L37.44022244628906,4.659334912109375C37.44022244628906,4.388031912109375,37.22017244628906,4.163909912109375,36.94510244628906,4.163909912109375L36.94116244628906,4.163909912109375Z" fill="#1A2033" fill-opacity="1"/></g><g><path d="M55.65730013183594,7.132476806640625L54.670990131835936,7.132476806640625C52.222920131835934,7.132476806640625,50.23851013183594,9.125956806640625,50.23851013183594,11.583406806640625L50.23851013183594,17.516676806640625C50.23851013183594,17.787976806640625,50.458561131835935,18.012076806640625,50.73363013183594,18.012076806640625L52.20719013183594,18.012076806640625C52.47833013183594,18.012076806640625,52.70231013183594,17.791876806640623,52.70231013183594,17.516676806640625L52.70231013183594,11.485106806640626C52.757330131835936,10.439216806640625,53.617890131835935,9.605656806640624,54.670990131835936,9.605656806640624L55.75553013183594,9.605656806640624C56.796860131835935,9.660706806640626,57.62598013183594,10.525716806640625,57.62598013183594,11.583406806640625L57.62598013183594,17.516676806640625C57.62598013183594,17.787976806640625,57.84603013183594,18.012076806640625,58.12110013183594,18.012076806640625L59.59466013183594,18.012076806640625C59.86579013183594,18.012076806640625,60.08978013183594,17.791876806640623,60.08978013183594,17.516676806640625L60.08978013183594,11.583406806640625C60.08978013183594,9.125956806640625,58.10539013183594,7.132476806640625,55.65730013183594,7.132476806640625Z" fill="#1A2033" fill-opacity="1"/></g><g><path d="M44.332562583007814,7.132476806640625L43.34625258300781,7.132476806640625C40.89818258300781,7.132476806640625,38.91377258300781,9.125956806640625,38.91377258300781,11.583406806640625L38.91377258300781,13.561156806640625C38.91377258300781,16.018606806640626,40.89816258300781,18.012076806640625,43.34625258300781,18.012076806640625L44.332562583007814,18.012076806640625C45.03986258300781,18.012076806640625,45.707882583007816,17.846976806640626,46.30517258300781,17.548076806640623C46.320882583007815,17.807676806640625,46.53702258300781,18.012076806640625,46.80029258300781,18.012076806640625L48.27385258300781,18.012076806640625C48.54499258300781,18.012076806640625,48.76897258300781,17.791876806640623,48.76897258300781,17.516676806640625L48.76897258300781,11.583406806640625C48.76897258300781,9.125956806640625,46.78458258300781,7.132476806640625,44.33649258300781,7.132476806640625L44.332562583007814,7.132476806640625ZM46.30124258300781,13.561156806640625L46.30124258300781,13.659456806640625C46.246222583007814,14.705346806640625,45.385662583007814,15.538906806640625,44.332562583007814,15.538906806640625L43.248012583007814,15.538906806640625C42.206692583007815,15.483856806640626,41.37757258300781,14.618846806640626,41.37757258300781,13.561156806640625L41.37757258300781,11.485106806640626C41.43259258300781,10.439216806640625,42.29315258300781,9.605656806640624,43.34625258300781,9.605656806640624L44.430792583007815,9.605656806640624C45.47212258300781,9.660706806640626,46.30124258300781,10.525716806640625,46.30124258300781,11.583406806640625L46.30124258300781,13.561156806640625Z" fill="#1A2033" fill-opacity="1"/></g><g><path d="M104.99603172363281,17.595210009765623C104.99209172363281,17.516610009765625,104.96458172363282,17.441910009765625,104.91743172363282,17.382910009765624L101.22763172363281,12.440510009765624L104.86241172363282,7.977785009765625C104.92136172363281,7.907014009765625,104.95278172363281,7.820511009765625,104.95278172363281,7.726137009765625C104.95278172363281,7.505951009765625,104.77595172363282,7.329010009765625,104.55590172363281,7.329010009765625L102.66975172363281,7.329010009765625C102.52043172363281,7.329010009765625,102.37897172363282,7.395857809765625,102.28860172363281,7.509875009765625L98.53200472363281,12.122010009765624C98.4966290236328,12.165260009765625,98.47305302363281,12.212450009765625,98.45734372363282,12.263560009765625C98.42196772363282,12.322530009765625,98.39839172363281,12.393310009765624,98.39839172363281,12.471950009765624C98.39839172363281,12.558450009765625,98.42590102363282,12.641020009765626,98.47698642363281,12.707870009765625L102.28860172363281,17.811510009765627C102.38290172363281,17.937310009765625,102.52829172363282,18.008110009765623,102.68548172363282,18.008110009765623L104.60308172363281,18.008110009765623C104.82313172363281,18.008110009765623,104.99996172363281,17.831110009765624,104.99996172363281,17.611010009765625L104.99996172363281,17.587410009765627L104.99603172363281,17.595210009765623Z" fill="#1A2033" fill-opacity="1"/></g><g><rect x="95.54164123535156" y="4.163909912109375" width="2.463792324066162" height="13.8482027053833" rx="0.6300000548362732" fill="#1A2033" fill-opacity="1"/></g><g><path d="M66.98212923339844,7.132509912109375L65.99581923339844,7.132509912109375C65.28851923339843,7.132509912109375,64.62049923339843,7.297659912109375,64.02713923339844,7.596479912109375L64.02713923339844,4.659334912109375C64.02713923339844,4.388031912109375,63.807089233398436,4.163909912109375,63.53201923339844,4.163909912109375L62.05845923339844,4.163909912109375C61.78732323339844,4.163909912109375,61.56333923339844,4.384095912109375,61.56333923339844,4.659334912109375L61.56333923339844,13.561179912109376C61.56333923339844,16.018609912109376,63.547729233398435,18.012109912109374,65.99581923339844,18.012109912109374L66.98212923339844,18.012109912109374C69.43018923339844,18.012109912109374,71.41460923339844,16.018609912109376,71.41460923339844,13.561179912109376L71.41460923339844,11.583429912109375C71.41460923339844,9.125979912109376,69.43021923339843,7.132499912109375,66.98212923339844,7.132509912109375ZM68.95080923339845,13.561189912109375C68.95080923339845,14.618909912109375,68.12168923339844,15.483909912109375,67.08035923339844,15.535009912109375L66.98212923339844,15.535009912109375L65.99581923339844,15.535009912109375C64.94271923339844,15.535009912109375,64.07822923339843,14.701409912109375,64.02713923339844,13.655559912109375L64.02713923339844,13.557259912109375L64.02713923339844,11.579509912109376C64.02713923339844,10.521819912109375,64.85625923339843,9.656789912109375,65.89757923339843,9.605689912109375L65.99581923339844,9.605689912109375L66.98212923339844,9.605689912109375C68.03522923339844,9.605689912109375,68.89971923339844,10.439249912109375,68.95080923339845,11.485139912109375L68.95080923339845,11.583439912109375L68.95080923339845,13.561189912109375Z" fill="#1A2033" fill-opacity="1"/></g><g><path d="M78.30695833496094,7.132476806640625L77.32064833496094,7.132476806640625C74.87257833496093,7.132476806640625,72.88816833496094,9.125956806640625,72.88816833496094,11.583406806640625L72.88816833496094,13.561156806640625C72.88816833496094,16.018606806640626,74.87255833496094,18.012076806640625,77.32064833496094,18.012076806640625L78.30695833496094,18.012076806640625C80.75501833496094,18.012076806640625,82.73943833496094,16.018606806640626,82.73943833496094,13.561156806640625L82.73943833496094,11.583406806640625C82.73943833496094,9.125956806640625,80.75504833496093,7.132476806640625,78.30695833496094,7.132476806640625ZM80.27563833496095,13.561156806640625C80.27563833496095,14.618846806640626,79.44651833496094,15.483866806640625,78.40518833496094,15.534976806640625L78.30695833496094,15.534976806640625L77.32064833496094,15.534976806640625C76.26754833496094,15.534976806640625,75.40305833496093,14.701406806640625,75.35196833496094,13.655516806640625L75.35196833496094,13.557226806640625L75.35196833496094,11.579466806640625C75.35196833496094,10.521786806640625,76.18108833496093,9.656756806640626,77.22240833496093,9.605656806640624L77.32064833496094,9.605656806640624L78.30695833496094,9.605656806640624C79.36005833496094,9.605656806640624,80.22454833496094,10.439216806640625,80.27563833496095,11.485106806640626L80.27563833496095,11.583406806640625L80.27563833496095,13.561156806640625Z" fill="#1A2033" fill-opacity="1"/></g><g><path d="M89.63178743652344,7.132476806640625L88.64547743652344,7.132476806640625C86.19740743652343,7.132476806640625,84.21299743652344,9.125956806640625,84.21299743652344,11.583406806640625L84.21299743652344,13.561156806640625C84.21299743652344,16.018606806640626,86.19738743652344,18.012076806640625,88.64547743652344,18.012076806640625L89.63178743652344,18.012076806640625C92.07984743652344,18.012076806640625,94.06426743652344,16.018606806640626,94.06426743652344,13.561156806640625L94.06426743652344,11.583406806640625C94.06426743652344,9.125956806640625,92.07987743652343,7.132476806640625,89.63178743652344,7.132476806640625ZM91.60046743652345,13.561156806640625C91.60046743652345,14.618846806640626,90.77134743652344,15.483866806640625,89.73001743652344,15.534976806640625L89.63178743652344,15.534976806640625L88.64547743652344,15.534976806640625C87.59237743652344,15.534976806640625,86.72788743652343,14.701406806640625,86.67679743652344,13.655516806640625L86.67679743652344,13.557226806640625L86.67679743652344,11.579466806640625C86.67679743652344,10.521786806640625,87.50591743652343,9.656756806640626,88.54723743652343,9.605656806640624L88.64547743652344,9.605656806640624L89.63178743652344,9.605656806640624C90.68488743652344,9.605656806640624,91.54937743652344,10.439216806640625,91.60046743652345,11.485106806640626L91.60046743652345,11.583406806640625L91.60046743652345,13.561156806640625Z" fill="#1A2033" fill-opacity="1"/></g></g></g></g></svg>