<svg xmlns="http://www.w3.org/2000/svg" xmlns:xlink="http://www.w3.org/1999/xlink" fill="none" version="1.1" width="265" height="25.999998092651367" viewBox="0 0 265 25.999998092651367"><g><path d="M94.8,19.322L97.972,19.322L101.378,9.442L106.318,9.442L102.912,19.322L106.422,19.322L106.084,21.792L85.336,21.792L85.674,19.322L89.86,19.322L88.534,9.416L93.474,9.416L94.8,19.322ZM95.528,5.49L95.658,4.502L94.8,3.514L100.728,3.514L100.442,5.49L107.878,5.49L107.514,7.96L87.754,7.96L88.118,5.49L95.528,5.49ZM119.188,15.63L119.292,21.792L115.6,21.792L115.574,20.57L108.424,21.792L110.92,4.008L121.788,4.008L120.332,14.382L113.156,14.382L112.636,18.178L115.496,17.71L115.47,15.63L119.188,15.63ZM128.626,6.478L126.39,6.478L124.18,22.234L120.488,22.234L123.036,4.008L132.656,4.008L130.68,18.048Q130.576,18.802,130.004,19.309Q129.432,19.816,128.678,19.816L125.246,19.816L127.014,17.97L128.626,6.478ZM117.004,11.912L117.212,10.43L113.728,10.43L113.52,11.912L117.004,11.912ZM114.274,6.478L114.066,7.96L117.55,7.96L117.758,6.478L114.274,6.478ZM156.524,4.996L154.184,21.688L144.824,21.688L147.164,4.996L156.524,4.996ZM136.4,8.48L134.606,8.48L134.97,5.958L137.154,5.958L137.518,4.71L136.738,3.8L142.042,3.8L141.418,5.958L146.254,5.958L144.226,20.466Q144.096,21.194,143.524,21.688Q142.952,22.182,142.198,22.182L137.908,22.182L140.196,19.79L141.782,8.48L140.69,8.48L136.738,22.182L132.422,22.182L136.4,8.48ZM150.622,18.828L152.156,7.83L150.752,7.83L149.218,18.828L150.622,18.828ZM170.616,6.478L163.674,6.478L165.052,3.774L174.672,3.774L179.248,22.234L174.308,22.234L170.616,6.478ZM169.888,7.96L162.452,22.234L157.512,22.234L164.948,7.96L169.888,7.96Z" fill="#FFFFFF" fill-opacity="1"/></g></svg>