<svg xmlns="http://www.w3.org/2000/svg" xmlns:xlink="http://www.w3.org/1999/xlink" fill="none" version="1.1" width="198"
     height="22" viewBox="0 0 198 22">
    <g>
        <path d="M12.537,3.1355L10.821,6.0995L17.8605,6.0995L17.607,7.952L9.74849,7.952L9.31949,8.693L16.5735,8.693L16.1055,12.0275L13.278,14.0945L17.0415,17.1755L13.044,17.1755L11.133,15.635L9.00749,17.1755L5.00999,17.1755L9.24149,14.114L7.17449,12.437L4.44449,17.1755L0.739494,17.1755L6.04349,7.952L2.41649,7.952L2.66999,6.0995L3.62549,4.403L3.17699,3.8765L7.25249,3.8765L6.00449,6.0995L7.11599,6.0995L8.53949,3.6425L8.09099,3.1355L12.537,3.1355ZM17.568,5.534L14.2335,5.534L13.785,3.506L17.1195,3.506L17.568,5.534ZM8.46149,10.175L8.14949,10.7405L10.002,10.7405L9.92399,11.3255L11.3865,12.5345L13.0635,11.3255L13.2195,10.175L8.46149,10.175ZM22.6185,4.598L22.716,3.896L22.1115,3.155L25.992,3.155L25.7775,4.598L27.669,4.598L27.4155,6.275L25.5435,6.275L25.3485,7.7375L27.7275,7.7375L27.474,9.59L25.6995,9.59L25.5045,10.916L27.2205,10.916L26.9475,12.905L25.2315,12.905L24.939,14.972L34.689,14.972L34.416,16.844L24.432,16.844L21.039,15.6545L20.7075,17L18.4845,17L20.025,10.8185L19.4595,10.1555L22.4235,10.1555L21.585,13.5095L22.092,13.7045L22.677,9.59L19.5375,9.59L19.791,7.7375L22.17,7.7375L22.365,6.275L20.493,6.275L20.7465,4.598L22.6185,4.598ZM32.466,7.5815L32.7975,5.3L28.8,5.3L29.034,3.545L35.9955,3.545L35.1765,9.3365L31.1595,9.3365L30.7305,12.515L34.065,12.515L34.923,11.774L34.5525,14.4065L27.4935,14.4065L28.449,7.5815L32.466,7.5815ZM47.052,4.247L54.0525,3.1355L53.7795,4.988L49.626,5.651L49.353,7.5815L53.799,7.5815L53.526,9.434L52.785,9.434L51.693,17.1755L48.9045,17.1755L49.9965,9.434L49.08,9.434L47.988,17.1755L45.219,17.1755L47.052,4.247ZM39.9345,9.9995L40.0125,9.434L37.224,9.434L37.497,7.5815L38.8035,7.5815L38.5695,6.47L41.163,6.47L41.397,7.5815L42.1185,7.5815L42.6645,6.47L45.258,6.47L44.712,7.5815L46.0185,7.5815L45.7455,9.434L42.9765,9.434L42.8985,9.9995L45.297,9.9995L45.0435,11.852L42.645,11.852L42.0795,15.8885Q41.982,16.454,41.5432,16.8148Q41.1045,17.1755,40.539,17.1755L37.9845,17.1755L39.0765,16.064L39.681,11.852L37.263,11.852L37.5165,9.9995L39.9345,9.9995ZM40.7535,4.247L40.8315,3.701L40.344,3.1355L43.8735,3.1355L43.7175,4.247L46.116,4.247L45.843,6.0995L38.0625,6.0995L38.3355,4.247L40.7535,4.247ZM42.918,12.398L44.7705,12.398L44.8095,16.103L42.957,16.103L42.918,12.398ZM38.1405,16.103L36.288,16.103L37.38,12.398L39.2325,12.398L38.1405,16.103ZM69.594,16.844L54.774,16.844L56.5485,4.2275L55.9245,3.506L71.466,3.506L69.594,16.844ZM66.903,14.9915L68.268,5.3585L59.376,5.3585L58.011,14.9915L66.903,14.9915ZM63.081,13.178L63.7635,8.381L63.432,8.381L61.131,13.5875L58.557,13.5875L60.8775,8.381L59.415,8.381L59.6295,6.8015L63.978,6.8015L64.0755,6.1385L63.705,5.69L67.059,5.69L66.903,6.8015L67.644,6.8015L67.4295,8.381L66.669,8.381L65.9475,13.5875Q65.889,14.0165,65.538,14.309Q65.187,14.6015,64.7385,14.6015L61.6185,14.6015L63.081,13.178ZM89.0355,3.506L88.782,5.3585L88.041,5.3585L86.598,15.518Q86.52,16.064,86.091,16.454Q85.662,16.844,85.0965,16.844L81.2355,16.844L82.971,14.9915L84.336,5.3585L73.221,5.3585L73.4745,3.506L89.0355,3.506ZM83.0685,6.47L81.9765,14.2505L73.0845,14.2505L74.0595,7.211L73.4355,6.47L83.0685,6.47ZM79.461,8.3225L77.238,8.3225L76.6725,12.398L78.8955,12.398L79.461,8.3225ZM104.148,6.821L102.9,9.434L106.82,9.434L106.566,11.2865L104.226,11.2865L106.157,17.156L102.997,17.156L101.457,12.4565L99.2145,17.117L96.0555,17.117L98.844,11.2865L97.05,11.2865L97.3035,9.434L99.741,9.434L100.989,6.821L104.148,6.821ZM91.161,17.1755L92.916,15.362L93.0135,14.6015L90.303,14.6015L93.3645,12.1445L93.501,11.072L90.7515,11.072L93.4815,9.005L91.9995,6.8795L95.4315,6.8795L95.8995,7.718L98.0835,7.718L96.543,8.888L96.8355,9.3755L95.8995,15.8885Q95.802,16.454,95.373,16.8148Q94.944,17.1755,94.3785,17.1755L91.161,17.1755ZM94.8465,5.651L91.902,5.651L92.1165,3.9935L95.0805,3.9935L95.1,3.8765L94.476,3.1355L98.5515,3.1355L98.415,3.9935L101.379,3.9935L101.398,3.8765L100.774,3.1355L104.85,3.1355L104.714,3.9935L107.677,3.9935L107.463,5.651L104.479,5.651L104.421,6.1385L101.087,6.1385L101.145,5.651L98.181,5.651L98.1225,6.1385L94.788,6.1385L94.8465,5.651ZM104.616,6.86L106.839,6.86L106.897,9.0245L104.674,9.0245L104.616,6.86ZM114.405,8.693L115.049,4.052L114.581,3.506L125.13,3.506L124.409,8.693L114.405,8.693ZM119.592,11.2865L119.67,10.7405L113.742,10.7405L113.957,9.2585L124.701,9.2585L124.487,10.7405L123.005,10.7405L122.926,11.2865L124.779,11.2865L124.564,12.7685L122.712,12.7685L122.283,15.8885Q122.186,16.454,121.757,16.8148Q121.327,17.1755,120.762,17.1755L117.271,17.1755L119.007,15.3815L119.378,12.7685L113.45,12.7685L113.664,11.2865L119.592,11.2865ZM113.528,8.3225L112.28,17.1755L108.75,17.1755L109.9,9.044L108.77,9.2585L109.082,7.0355L113.84,6.0995L113.528,8.3225ZM113.957,5.3585L109.179,6.2945L109.491,4.0715L114.269,3.1355L113.957,5.3585ZM117.447,13.3145L117.876,15.5375L114.542,15.5375L114.113,13.3145L117.447,13.3145ZM118.246,4.988L118.169,5.5535L121.503,5.5535L121.581,4.988L118.246,4.988ZM121.269,7.211L121.347,6.665L118.013,6.665L117.935,7.211L121.269,7.211ZM141.686,3.1355L140.106,7.2695L141.413,7.2695L142.836,17.1755L139.326,17.1755L138.488,11.501L136.342,17.1755L132.833,17.1755L137.922,3.74L137.415,3.1355L141.686,3.1355ZM130.999,14.465L132.521,14.2505L132.208,16.454L126.905,17.1755L128.777,3.8765L128.152,3.1355L132.599,3.1355L130.999,14.465ZM135.582,4.247L135.29,9.0635L132.696,9.0635L132.989,4.247L135.582,4.247ZM159.587,14.2505L155.882,14.2505L153.327,8.732L152.138,17.1755L148.433,17.1755L150.09,5.3585L144.903,5.3585L145.157,3.506L160.717,3.506L160.464,5.3585L153.795,5.3585L153.6,6.8405L156.174,6.8405L159.587,14.2505ZM166.022,13.5095L162.785,13.5095L163.038,11.657L168.128,11.657L168.966,10.916L173.568,10.916L172.73,11.657L178.599,11.657L178.346,13.5095L174.758,13.5095L178.19,17.1755L173.393,17.1755L170.37,13.7435L166.49,17.1755L161.888,17.1755L166.022,13.5095ZM175.655,3.1355L175.187,3.8765L179.633,3.8765L179.282,6.47L176.162,10.526L169.785,10.526L170.058,8.6735L170.858,8.6735L170.409,6.821L173.432,6.821L173.88,8.6735L174.114,8.6735L176.103,5.729L174.056,5.729L173.607,6.4505L170.156,6.4505L171.989,3.623L171.579,3.1355L175.655,3.1355ZM165.924,9.5705L163.214,10.5455L163.526,8.381L166.236,7.406L166.314,6.743L163.818,6.275L164.111,4.2275L166.607,4.6955L166.724,3.9155L166.178,3.1355L170.312,3.1355L169.278,10.5065L165.807,10.5065L165.924,9.5705ZM191.313,7.5425L190.689,7.5425L190.943,5.6705L191.781,5.6705L192.249,3.779L191.684,3.155L195.077,3.155L194.453,5.6705L197.612,5.6705L196.188,15.83Q196.11,16.3955,195.779,16.7563Q195.447,17.117,194.882,17.117L191.898,17.117L193.575,15.2255L194.648,7.5425L193.985,7.5425L191.625,17.1365L188.973,17.1365L191.313,7.5425ZM186.555,15.752L187.277,10.643L186.575,10.643L185.073,17.1755L182.694,17.1755L184.82,7.9715L184.43,7.9715L184.683,6.1775L190.163,6.1775L189.909,7.9715L187.199,7.9715L186.945,9.0635L189.792,9.0635L188.837,15.83Q188.759,16.3955,188.32,16.7757Q187.881,17.156,187.316,17.156L185.268,17.156L186.555,15.752ZM190.748,3.506L190.494,5.3195L184.527,5.3195L182.265,17.117L179.789,17.117L182.148,4.208L181.778,3.506L190.748,3.506Z"
              fill="#292E7B" fill-opacity="1"/>
    </g>
</svg>