<svg fill="none" height="300" viewBox="0 0 300 300" width="300" xmlns="http://www.w3.org/2000/svg" xmlns:xlink="http://www.w3.org/1999/xlink"><linearGradient id="a" x1=".5" x2=".5" y1="0" y2="1"><stop offset="0" stop-color="#d8d8d8" stop-opacity="0"/><stop offset="1" stop-color="#ffc96d"/></linearGradient><g fill="url(#a)" opacity=".4"><path d="m137.41723633 0 8 170.4h14.4l8-170.4z"/><path d="m214.10290527 13.80477905 8 170.4h14.4l8-170.4z" transform="matrix(.86602539 .5 -.5 .86602539 35.586759 -105.202024)"/><path d="m273.61230469 64.10308838 8 170.4h14.4l8-170.4z" transform="matrix(.49999997 .86602545 -.86602545 .49999997 192.321066 -204.903673)"/><path d="m300 137.41723633 8 170.4h14.4l8-170.4z" transform="matrix(0 1 -1 0 437.417236 -162.582764)"/><path d="m286.19500732 214.10293579 8 170.4h14.4l8-170.4z" transform="matrix(-.50000006 .86602539 -.86602539 -.50000006 614.710923 73.30238)"/><path d="m235.89706421 273.61230469 8 170.4h14.4l8-170.4z" transform="matrix(-.86602539 .50000006 -.50000006 -.86602539 576.996079 392.618961)"/><path d="m162.58276367 300 8 170.4h14.4l8-170.4z" transform="matrix(-1 0 0 -1 325.165527 600)"/><path d="m85.8972168 286.19522095 8 170.4h14.4l8-170.4z" transform="matrix(-.86602539 -.49999997 .49999997 -.86602539 17.188785 576.996154)"/><path d="m26.38781738 235.89706421 8 170.4h14.4l8-170.4z" transform="matrix(-.49999991 -.86602545 .86602545 -.49999991 -164.711503 376.697885)"/><path d="m0 162.58276367 8 170.4h14.4l8-170.4z" transform="matrix(0 -1 1 0 -162.582764 162.582764)"/><path d="m13.80477715 85.89697266 8 170.4h14.4l8-170.4z" transform="matrix(.49999991 -.86602545 .86602545 .49999991 -67.486574 54.903782)"/><path d="m64.10290527 26.38739777 8 170.4h14.4l8-170.4z" transform="matrix(.86602533 -.50000018 .50000018 .86602533 -4.60566 35.58674)"/></g></svg>