<svg xmlns="http://www.w3.org/2000/svg" xmlns:xlink="http://www.w3.org/1999/xlink" fill="none" version="1.1" width="8" height="8" viewBox="0 0 8 8"><g><g><path d="M6,2.333343505859375L6,3.000013505859375C6.5523,3.000013505859375,7,3.447723505859375,7,4.000013505859375L7,6.666673505859375C7,7.218973505859375,6.5523,7.666673505859375,6,7.666673505859375L2,7.666673505859375C1.447717,7.666673505859375,1,7.218973505859375,1,6.666673505859375L1,4.000013505859375C1,3.447723505859375,1.447717,3.000013505859375,2,3.000013505859375L2,2.333343505859375C2,1.228773505859375,2.89543,0.333343505859375,4,0.333343505859375C5.10457,0.333343505859375,6,1.228773505859375,6,2.333343505859375ZM4,1.000010505859375C3.63181,1.000010505859375,3.31754,1.130183505859375,3.05719,1.390533505859375C2.79684,1.650883505859375,2.66667,1.965153505859375,2.66667,2.333343505859375L2.66667,3.000013505859375L5.33333,3.000013505859375L5.33333,2.333343505859375C5.33333,1.965153505859375,5.20317,1.650883505859375,4.9428,1.390533505859375C4.68247,1.130183505859375,4.3682,1.000010505859375,4,1.000010505859375ZM4.33333,5.372673505859375C4.4394,5.277843505859375,4.5,5.142273505859375,4.5,5.000013505859375C4.5,4.723873505859375,4.27614,4.500013505859375,4,4.500013505859375C3.72386,4.500013505859375,3.5,4.723873505859375,3.5,5.000013505859375C3.5,5.142273505859375,3.56062,5.277843505859375,3.66667,5.372673505859375L3.66667,5.833343505859375C3.66667,6.017443505859375,3.8159,6.166673505859375,4,6.166673505859375C4.1841,6.166673505859375,4.33333,6.017443505859375,4.33333,5.833343505859375L4.33333,5.372673505859375Z" fill="#D1D2D6" fill-opacity="1"/></g></g></svg>