<svg xmlns="http://www.w3.org/2000/svg" xmlns:xlink="http://www.w3.org/1999/xlink" fill="none" version="1.1" width="188" height="28.409090042114258" viewBox="0 0 188 28.409090042114258"><g><path d="M56.3,19.322L59.472,19.322L62.878,9.442L67.818,9.442L64.412,19.322L67.922,19.322L67.584,21.792L46.836,21.792L47.174,19.322L51.36,19.322L50.034,9.416L54.974,9.416L56.3,19.322ZM57.028,5.49L57.158,4.502L56.3,3.514L62.228,3.514L61.942,5.49L69.378,5.49L69.014,7.96L49.254,7.96L49.618,5.49L57.028,5.49ZM80.688,15.63L80.792,21.792L77.1,21.792L77.074,20.57L69.924,21.792L72.42,4.008L83.288,4.008L81.832,14.382L74.656,14.382L74.136,18.178L76.996,17.71L76.97,15.63L80.688,15.63ZM90.126,6.478L87.89,6.478L85.68,22.234L81.988,22.234L84.536,4.008L94.156,4.008L92.18,18.048Q92.076,18.802,91.504,19.309Q90.932,19.816,90.178,19.816L86.746,19.816L88.514,17.97L90.126,6.478ZM78.504,11.912L78.712,10.43L75.228,10.43L75.02,11.912L78.504,11.912ZM75.774,6.478L75.566,7.96L79.05,7.96L79.258,6.478L75.774,6.478ZM110.276,3.514L107.988,7.466L117.374,7.466L117.036,9.936L106.558,9.936L105.986,10.924L115.658,10.924L115.034,15.37L111.264,18.126L116.282,22.234L110.952,22.234L108.404,20.18L105.57,22.234L100.24,22.234L105.882,18.152L103.126,15.916L99.486,22.234L94.546,22.234L101.618,9.936L96.782,9.936L97.12,7.466L98.394,5.204L97.796,4.502L103.23,4.502L101.566,7.466L103.048,7.466L104.946,4.19L104.348,3.514L110.276,3.514ZM116.984,6.712L112.538,6.712L111.94,4.008L116.386,4.008L116.984,6.712ZM104.842,12.9L104.426,13.654L106.896,13.654L106.792,14.434L108.742,16.046L110.978,14.434L111.186,12.9L104.842,12.9ZM123.718,5.464L123.848,4.528L123.042,3.54L128.216,3.54L127.93,5.464L130.452,5.464L130.114,7.7L127.618,7.7L127.358,9.65L130.53,9.65L130.192,12.12L127.826,12.12L127.566,13.888L129.854,13.888L129.49,16.54L127.202,16.54L126.812,19.296L139.812,19.296L139.448,21.792L126.136,21.792L121.612,20.206L121.17,22L118.206,22L120.26,13.758L119.506,12.874L123.458,12.874L122.34,17.346L123.016,17.606L123.796,12.12L119.61,12.12L119.948,9.65L123.12,9.65L123.38,7.7L120.884,7.7L121.222,5.464L123.718,5.464ZM136.848,9.442L137.29,6.4L131.96,6.4L132.272,4.06L141.554,4.06L140.462,11.782L135.106,11.782L134.534,16.02L138.98,16.02L140.124,15.032L139.63,18.542L130.218,18.542L131.492,9.442L136.848,9.442Z" fill="#FFFFFF" fill-opacity="1"/></g></svg>