<svg xmlns="http://www.w3.org/2000/svg" xmlns:xlink="http://www.w3.org/1999/xlink" fill="none" version="1.1" width="265" height="25.999998092651367" viewBox="0 0 265 25.999998092651367"><g><path d="M100.936,3.514L98.648,7.466L108.034,7.466L107.696,9.936L97.218,9.936L96.646,10.924L106.318,10.924L105.694,15.37L101.924,18.126L106.942,22.234L101.612,22.234L99.064,20.18L96.23,22.234L90.9,22.234L96.542,18.152L93.786,15.916L90.146,22.234L85.206,22.234L92.278,9.936L87.442,9.936L87.78,7.466L89.054,5.204L88.456,4.502L93.89,4.502L92.226,7.466L93.708,7.466L95.606,4.19L95.008,3.514L100.936,3.514ZM107.644,6.712L103.198,6.712L102.6,4.008L107.046,4.008L107.644,6.712ZM95.502,12.9L95.086,13.654L97.556,13.654L97.452,14.434L99.402,16.046L101.638,14.434L101.846,12.9L95.502,12.9ZM114.378,5.464L114.508,4.528L113.702,3.54L118.876,3.54L118.59,5.464L121.112,5.464L120.774,7.7L118.278,7.7L118.018,9.65L121.19,9.65L120.852,12.12L118.486,12.12L118.226,13.888L120.514,13.888L120.15,16.54L117.862,16.54L117.472,19.296L130.472,19.296L130.108,21.792L116.796,21.792L112.272,20.206L111.83,22L108.866,22L110.92,13.758L110.166,12.874L114.118,12.874L113,17.346L113.676,17.606L114.456,12.12L110.27,12.12L110.608,9.65L113.78,9.65L114.04,7.7L111.544,7.7L111.882,5.464L114.378,5.464ZM127.508,9.442L127.95,6.4L122.62,6.4L122.932,4.06L132.214,4.06L131.122,11.782L125.766,11.782L125.194,16.02L129.64,16.02L130.784,15.032L130.29,18.542L120.878,18.542L122.152,9.442L127.508,9.442ZM142.796,19.322L144.824,4.866L144.122,4.034L155.796,4.034L153.638,19.322L154.678,19.322L154.34,21.74L141.47,21.74L141.808,19.322L142.796,19.322ZM134.762,9.442L138.35,4.164L137.726,3.514L143.472,3.514L139.494,9.442L142.666,9.442L138.688,15.37L141.808,15.37L141.47,17.84L133.644,17.84L133.982,15.37L136.296,11.912L134.424,11.912L134.762,9.442ZM140.976,21.298L133.098,21.792L133.436,19.322L141.34,18.828L140.976,21.298ZM147.424,14.382L150.388,14.382L150.83,11.236L147.866,11.236L147.424,14.382ZM146.722,19.322L149.686,19.322L150.076,16.462L147.112,16.462L146.722,19.322ZM148.152,9.156L151.116,9.156L151.506,6.452L148.542,6.452L148.152,9.156ZM177.012,21.792L157.252,21.792L159.618,4.97L158.786,4.008L179.508,4.008L177.012,21.792ZM173.424,19.322L175.244,6.478L163.388,6.478L161.568,19.322L173.424,19.322ZM168.328,16.904L169.238,10.508L168.796,10.508L165.728,17.45L162.296,17.45L165.39,10.508L163.44,10.508L163.726,8.402L169.524,8.402L169.654,7.518L169.16,6.92L173.632,6.92L173.424,8.402L174.412,8.402L174.126,10.508L173.112,10.508L172.15,17.45Q172.072,18.022,171.604,18.412Q171.136,18.802,170.538,18.802L166.378,18.802L168.328,16.904Z" fill="#FFFFFF" fill-opacity="1"/></g></svg>