<svg xmlns="http://www.w3.org/2000/svg" xmlns:xlink="http://www.w3.org/1999/xlink" fill="none" version="1.1" width="265" height="25.999998092651367" viewBox="0 0 265 25.999998092651367"><g><path d="M108.242,4.008L107.904,6.53L103.692,6.53L103.25,7.648L107.306,7.648L105.98,17.034L103.51,17.034L103.068,16.41L103.978,9.962L99.402,9.962L98.492,16.41L97.894,17.034L95.398,17.034L96.724,7.648L99.948,7.648L100.39,6.53L96.594,6.53L96.932,4.008L108.242,4.008ZM88.768,16.41L89.314,17.372L90.848,14.538L85.128,14.538L85.466,12.12L95.268,12.12L94.878,14.876L91.368,20.284L91.316,20.284L92.486,22.182L88.43,22.182L84.972,16.41L88.768,16.41ZM92.616,11.34L89.47,11.34L89.132,9.416L88.456,11.054L85.362,11.054L88.014,4.736L87.39,4.034L95.138,4.034L96.074,11.028L93.24,11.028L92.486,6.322L90.432,6.322L89.47,8.584L92.148,8.584L92.616,11.34ZM103.068,10.872L102.314,16.306L105.772,22.182L101.69,22.182L100.468,18.932L98.154,22.182L94.306,22.182L99.298,16.202L100.052,10.872L103.068,10.872ZM120.8,19.01L119.578,19.166L119.162,22.234L115.262,22.234L115.626,19.608L108.84,20.388L109.204,17.71L110.01,17.632L111.544,6.478L110.764,6.478L111.102,4.008L122.464,4.008L122.126,6.478L121.372,6.478L119.968,16.462L121.19,16.306L120.8,19.01ZM125.792,7.96L125.558,9.65L126.52,12.406L128.106,9.286L128.392,7.128L122.542,7.128L122.932,4.528L132.24,4.528L131.434,10.144L127.82,16.02L130.03,22.208L126.676,22.208L125.688,19.478L124.024,22.182L120.098,22.182L124.388,15.812L122.23,9.702L122.464,7.96L125.792,7.96ZM115.08,8.376L117.212,8.376L117.472,6.478L115.34,6.478L115.08,8.376ZM114.482,12.744L116.588,12.744L116.874,10.846L114.742,10.846L114.482,12.744ZM113.858,17.164L116.016,16.93L116.25,15.214L114.144,15.214L113.858,17.164ZM138.142,17.346L133.826,17.346L134.164,14.876L140.95,14.876L142.068,13.888L148.204,13.888L147.086,14.876L154.912,14.876L154.574,17.346L149.79,17.346L154.366,22.234L147.97,22.234L143.94,17.658L138.766,22.234L132.63,22.234L138.142,17.346ZM150.986,3.514L150.362,4.502L156.29,4.502L155.822,7.96L151.662,13.368L143.16,13.368L143.524,10.898L144.59,10.898L143.992,8.428L148.022,8.428L148.62,10.898L148.932,10.898L151.584,6.972L148.854,6.972L148.256,7.934L143.654,7.934L146.098,4.164L145.552,3.514L150.986,3.514ZM138.012,12.094L134.398,13.394L134.814,10.508L138.428,9.208L138.532,8.324L135.204,7.7L135.594,4.97L138.922,5.594L139.078,4.554L138.35,3.514L143.862,3.514L142.484,13.342L137.856,13.342L138.012,12.094ZM171.864,9.39L171.032,9.39L171.37,6.894L172.488,6.894L173.112,4.372L172.358,3.54L176.882,3.54L176.05,6.894L180.262,6.894L178.364,20.44Q178.26,21.194,177.818,21.675Q177.376,22.156,176.622,22.156L172.644,22.156L174.88,19.634L176.31,9.39L175.426,9.39L172.28,22.182L168.744,22.182L171.864,9.39ZM165.52,20.336L166.482,13.524L165.546,13.524L163.544,22.234L160.372,22.234L163.206,9.962L162.686,9.962L163.024,7.57L170.33,7.57L169.992,9.962L166.378,9.962L166.04,11.418L169.836,11.418L168.562,20.44Q168.458,21.194,167.873,21.701Q167.288,22.208,166.534,22.208L163.804,22.208L165.52,20.336ZM171.11,4.008L170.772,6.426L162.816,6.426L159.8,22.156L156.498,22.156L159.644,4.944L159.15,4.008L171.11,4.008Z" fill="#FFFFFF" fill-opacity="1"/></g></svg>