<svg xmlns="http://www.w3.org/2000/svg" xmlns:xlink="http://www.w3.org/1999/xlink" fill="none" version="1.1" width="188" height="28.409090042114258" viewBox="0 0 188 28.409090042114258"><g><path d="M56.3,19.322L59.472,19.322L62.878,9.442L67.818,9.442L64.412,19.322L67.922,19.322L67.584,21.792L46.836,21.792L47.174,19.322L51.36,19.322L50.034,9.416L54.974,9.416L56.3,19.322ZM57.028,5.49L57.158,4.502L56.3,3.514L62.228,3.514L61.942,5.49L69.378,5.49L69.014,7.96L49.254,7.96L49.618,5.49L57.028,5.49ZM80.688,15.63L80.792,21.792L77.1,21.792L77.074,20.57L69.924,21.792L72.42,4.008L83.288,4.008L81.832,14.382L74.656,14.382L74.136,18.178L76.996,17.71L76.97,15.63L80.688,15.63ZM90.126,6.478L87.89,6.478L85.68,22.234L81.988,22.234L84.536,4.008L94.156,4.008L92.18,18.048Q92.076,18.802,91.504,19.309Q90.932,19.816,90.178,19.816L86.746,19.816L88.514,17.97L90.126,6.478ZM78.504,11.912L78.712,10.43L75.228,10.43L75.02,11.912L78.504,11.912ZM75.774,6.478L75.566,7.96L79.05,7.96L79.258,6.478L75.774,6.478ZM117.582,4.008L117.244,6.53L113.032,6.53L112.59,7.648L116.646,7.648L115.32,17.034L112.85,17.034L112.408,16.41L113.318,9.962L108.742,9.962L107.832,16.41L107.234,17.034L104.738,17.034L106.064,7.648L109.288,7.648L109.73,6.53L105.934,6.53L106.272,4.008L117.582,4.008ZM98.108,16.41L98.654,17.372L100.188,14.538L94.468,14.538L94.806,12.12L104.608,12.12L104.218,14.876L100.708,20.284L100.656,20.284L101.826,22.182L97.77,22.182L94.312,16.41L98.108,16.41ZM101.956,11.34L98.81,11.34L98.472,9.416L97.796,11.054L94.702,11.054L97.354,4.736L96.73,4.034L104.478,4.034L105.414,11.028L102.58,11.028L101.826,6.322L99.772,6.322L98.81,8.584L101.488,8.584L101.956,11.34ZM112.408,10.872L111.654,16.306L115.112,22.182L111.03,22.182L109.808,18.932L107.494,22.182L103.646,22.182L108.638,16.202L109.392,10.872L112.408,10.872ZM130.14,19.01L128.918,19.166L128.502,22.234L124.602,22.234L124.966,19.608L118.18,20.388L118.544,17.71L119.35,17.632L120.884,6.478L120.104,6.478L120.442,4.008L131.804,4.008L131.466,6.478L130.712,6.478L129.308,16.462L130.53,16.306L130.14,19.01ZM135.132,7.96L134.898,9.65L135.86,12.406L137.446,9.286L137.732,7.128L131.882,7.128L132.272,4.528L141.58,4.528L140.774,10.144L137.16,16.02L139.37,22.208L136.016,22.208L135.028,19.478L133.364,22.182L129.438,22.182L133.728,15.812L131.57,9.702L131.804,7.96L135.132,7.96ZM124.42,8.376L126.552,8.376L126.812,6.478L124.68,6.478L124.42,8.376ZM123.822,12.744L125.928,12.744L126.214,10.846L124.082,10.846L123.822,12.744ZM123.198,17.164L125.356,16.93L125.59,15.214L123.484,15.214L123.198,17.164Z" fill="#FFFFFF" fill-opacity="1"/></g></svg>