<svg xmlns="http://www.w3.org/2000/svg" xmlns:xlink="http://www.w3.org/1999/xlink" fill="none" version="1.1" width="24.992164611816406" height="24.9376220703125" viewBox="0 0 24.992164611816406 24.9376220703125"><g><g><ellipse cx="12.492164611816406" cy="12.5" rx="12" ry="12" fill="#1A2033" fill-opacity="0.05000000074505806"/><path d="M23.914964611816405,17.5764Q23.490864611816406,18.5306,22.914364611816406,19.4013Q22.887164611816406,19.4424,22.852464611816405,19.4774Q22.817764611816408,19.5123,22.776964611816407,19.5398Q22.736164611816406,19.5674,22.690664611816405,19.5864Q22.645264611816405,19.6054,22.597064611816407,19.6153Q22.548764611816406,19.6251,22.499564611816407,19.6253Q22.450264611816408,19.6255,22.401964611816407,19.6161Q22.353564611816406,19.6067,22.308064611816405,19.588Q22.262464611816405,19.5693,22.221364611816405,19.5422Q22.180364611816405,19.515,22.145364611816404,19.4803Q22.110364611816408,19.4456,22.082864611816404,19.4048Q22.055364611816405,19.364,22.036264611816407,19.3185Q22.017264611816405,19.2731,22.007464611816406,19.2249Q21.997664611816408,19.1766,21.997464611816405,19.1274Q21.997264611816405,19.0781,22.006664611816408,19.0298Q22.016064611816407,18.9814,22.034664611816407,18.9359Q22.053364611816406,18.8903,22.080564611816406,18.8492Q22.610964611816406,18.0482,23.001164611816407,17.1703Q23.021164611816406,17.1253,23.049564611816407,17.085Q23.077964611816405,17.0448,23.113664611816407,17.0109Q23.149364611816406,16.9769,23.190964611816405,16.9506Q23.232564611816407,16.9243,23.278564611816407,16.9066Q23.324464611816406,16.889,23.373064611816407,16.8806Q23.421564611816407,16.8722,23.470764611816406,16.8735Q23.520064611816405,16.8747,23.568064611816407,16.8856Q23.616064611816405,16.8964,23.661064611816407,16.9164Q23.706064611816405,16.9364,23.746364611816407,16.9648Q23.786564611816406,16.9932,23.820464611816405,17.0289Q23.854464611816407,17.0646,23.880764611816407,17.1062Q23.907064611816406,17.1478,23.924764611816407,17.1938Q23.942364611816405,17.2398,23.950764611816407,17.2883Q23.959164611816405,17.3368,23.957864611816404,17.3861Q23.956664611816407,17.4353,23.945764611816408,17.4833Q23.934964611816405,17.5314,23.914964611816405,17.5764ZM20.840064611816405,21.8039Q20.050664611816405,22.5122,19.153264611816407,23.0773Q19.111564611816405,23.1036,19.065564611816406,23.1212Q19.019564611816406,23.1388,18.971064611816406,23.1471Q18.922464611816405,23.1554,18.873264611816406,23.1541Q18.824064611816407,23.1527,18.776064611816405,23.1418Q18.727964611816407,23.1309,18.683064611816405,23.1108Q18.638064611816407,23.0908,18.597864611816405,23.0623Q18.557664611816406,23.0339,18.523764611816407,22.9981Q18.489964611816408,22.9624,18.463664611816405,22.9207Q18.437464611816406,22.879,18.419864611816408,22.833Q18.402264611816406,22.787,18.393964611816408,22.7385Q18.385664611816406,22.69,18.386964611816406,22.6407Q18.388264611816407,22.5915,18.399264611816406,22.5435Q18.410164611816406,22.4955,18.430164611816405,22.4505Q18.450264611816408,22.4055,18.478764611816406,22.3653Q18.507164611816407,22.3251,18.542964611816405,22.2913Q18.578664611816407,22.2574,18.620364611816406,22.2312Q19.445964611816407,21.7112,20.172264611816406,21.0596Q20.208864611816406,21.0267,20.251264611816406,21.0016Q20.293564611816407,20.9765,20.340064611816405,20.9601Q20.386464611816407,20.9438,20.435264611816407,20.9368Q20.483964611816408,20.9298,20.533164611816407,20.9325Q20.582364611816406,20.9352,20.630064611816405,20.9474Q20.677764611816407,20.9596,20.722164611816407,20.9808Q20.766564611816406,21.0021,20.805964611816407,21.0316Q20.845364611816407,21.0612,20.878264611816405,21.0978Q20.911164611816407,21.1345,20.936264611816405,21.1769Q20.961364611816407,21.2192,20.977764611816408,21.2657Q20.994064611816405,21.3121,21.001064611816407,21.3609Q21.008064611816405,21.4096,21.005364611816407,21.4588Q21.002764611816406,21.508,20.990564611816406,21.5557Q20.978364611816406,21.6034,20.957064611816406,21.6478Q20.935764611816406,21.6922,20.906264611816407,21.7316Q20.876664611816405,21.771,20.840064611816405,21.8039ZM16.300264611816406,24.4058Q15.285864611816406,24.7303,14.231164611816407,24.8784Q14.182464611816407,24.8853,14.133264611816406,24.8825Q14.084064611816407,24.8797,14.036464611816406,24.8674Q13.988764611816407,24.855,13.944364611816406,24.8336Q13.900064611816406,24.8122,13.860664611816405,24.7826Q13.821364611816406,24.753,13.788564611816406,24.7162Q13.755764611816407,24.6795,13.730764611816406,24.637Q13.705864611816406,24.5946,13.689564611816406,24.5481Q13.673364611816407,24.5016,13.666464611816407,24.4529Q13.659664611816407,24.4041,13.662464611816405,24.3549Q13.665264611816406,24.3058,13.677564611816406,24.2581Q13.689864611816406,24.2104,13.711264611816405,24.166Q13.732664611816407,24.1217,13.762364611816407,24.0824Q13.791964611816406,24.043,13.828764611816407,24.0103Q13.865464611816407,23.9775,13.907864611816406,23.9525Q13.950364611816406,23.9275,13.996864611816406,23.9112Q14.043364611816406,23.895,14.092064611816406,23.8882Q15.062364611816406,23.7519,15.995564611816405,23.4534Q16.042464611816406,23.4384,16.091364611816406,23.4328Q16.140364611816405,23.4272,16.18936461181641,23.4313Q16.238464611816404,23.4354,16.285864611816407,23.449Q16.333164611816407,23.4626,16.376964611816405,23.4851Q16.420664611816406,23.5077,16.45926461181641,23.5384Q16.497764611816407,23.569,16.529564611816408,23.6066Q16.561364611816405,23.6442,16.585264611816406,23.6873Q16.609164611816407,23.7304,16.624164611816408,23.7773Q16.639164611816405,23.8242,16.644664611816406,23.8731Q16.650264611816407,23.922,16.646164611816406,23.9711Q16.642064611816405,24.0202,16.628464611816405,24.0675Q16.614864611816405,24.1149,16.592364611816407,24.1586Q16.569764611816407,24.2024,16.539164611816407,24.2409Q16.508464611816407,24.2795,16.470864611816406,24.3113Q16.433264611816405,24.3431,16.390164611816406,24.367Q16.347164611816407,24.3908,16.300264611816406,24.4058ZM11.219064611816407,24.935Q10.171734611816406,24.8278,9.157134611816407,24.5469Q9.109674611816406,24.5337,9.065684611816407,24.5116Q9.021704611816407,24.4895,8.982884611816406,24.4592Q8.944064611816406,24.4289,8.911904611816405,24.3916Q8.879744611816406,24.3543,8.855474611816406,24.3114Q8.831204611816407,24.2686,8.815754611816406,24.2218Q8.800314611816406,24.175,8.794294611816406,24.1262Q8.788264611816405,24.0773,8.791894611816407,24.0282Q8.795524611816406,23.9791,8.808664611816406,23.9316Q8.821804611816406,23.8842,8.843944611816406,23.8402Q8.866094611816406,23.7962,8.896394611816406,23.7574Q8.926694611816407,23.7185,8.963984611816405,23.6864Q9.001274611816406,23.6542,9.044124611816406,23.6299Q9.086974611816407,23.6057,9.133744611816406,23.5902Q9.180504611816406,23.5748,9.229374611816406,23.5688Q9.278254611816406,23.5627,9.327364611816407,23.5664Q9.376474611816406,23.57,9.423944611816406,23.5831Q10.357354611816406,23.8415,11.320864611816406,23.9402Q11.369864611816407,23.9452,11.416964611816406,23.9597Q11.463964611816406,23.9742,11.507364611816406,23.9975Q11.550664611816407,24.0209,11.588664611816407,24.0523Q11.626564611816406,24.0837,11.657664611816406,24.1219Q11.688764611816406,24.1601,11.711764611816406,24.2036Q11.734864611816405,24.2471,11.748964611816406,24.2943Q11.763064611816406,24.3415,11.767764611816407,24.3905Q11.772364611816407,24.4395,11.767364611816406,24.4885Q11.762364611816407,24.5375,11.747864611816405,24.5846Q11.733364611816405,24.6316,11.709964611816407,24.675Q11.686564611816406,24.7183,11.655264611816406,24.7563Q11.623864611816407,24.7942,11.585664611816407,24.8253Q11.547464611816407,24.8564,11.503964611816405,24.8795Q11.460464611816406,24.9025,11.413264611816405,24.9166Q11.366064611816407,24.9307,11.317064611816406,24.9354Q11.267964611816407,24.94,11.219064611816407,24.935ZM6.240474611816406,23.3243Q5.3249046118164065,22.7955,4.511154611816406,22.1205Q4.473254611816406,22.089,4.442214611816406,22.0508Q4.411174611816406,22.0126,4.388194611816406,21.969Q4.365214611816406,21.9255,4.351164611816406,21.8783Q4.337124611816407,21.8311,4.332554611816406,21.782Q4.327984611816406,21.733,4.333074611816406,21.684Q4.338164611816406,21.635,4.3527046118164066,21.588Q4.367254611816406,21.5409,4.390694611816406,21.4976Q4.414134611816406,21.4543,4.445584611816406,21.4164Q4.477024611816406,21.3785,4.515254611816406,21.3475Q4.5534846118164065,21.3164,4.597044611816406,21.2934Q4.6405946118164065,21.2705,4.687794611816407,21.2564Q4.734994611816406,21.2424,4.784024611816406,21.2378Q4.833064611816407,21.2332,4.882044611816406,21.2383Q4.931024611816406,21.2434,4.978074611816406,21.258Q5.025124611816406,21.2725,5.068434611816406,21.2959Q5.111734611816407,21.3194,5.149644611816406,21.3508Q5.898294611816406,21.9719,6.740614611816406,22.4584Q6.783254611816406,22.483,6.820274611816406,22.5155Q6.857294611816406,22.548,6.8872646118164065,22.587Q6.917244611816407,22.6261,6.939014611816407,22.6703Q6.960784611816406,22.7145,6.973524611816406,22.762Q6.986264611816407,22.8096,6.989474611816406,22.8587Q6.992694611816407,22.9079,6.986254611816406,22.9567Q6.979824611816406,23.0055,6.963984611816406,23.0522Q6.9481446118164065,23.0988,6.923514611816406,23.1414Q6.898884611816406,23.1841,6.866414611816406,23.2211Q6.833934611816407,23.2581,6.794864611816406,23.2881Q6.755784611816407,23.3181,6.711614611816406,23.3398Q6.667444611816406,23.3616,6.619874611816407,23.3743Q6.572304611816406,23.3871,6.523164611816406,23.3903Q6.474024611816406,23.3935,6.425204611816406,23.3871Q6.376384611816406,23.3806,6.329754611816406,23.3648Q6.283124611816406,23.349,6.240474611816406,23.3243ZM2.3433746118164063,19.7974Q1.7306146118164063,18.9452,1.2685616118164063,18.0028Q1.2468826118164062,17.9586,1.2342456118164062,17.911Q1.2216096118164064,17.8634,1.2185016118164063,17.8142Q1.2153946118164063,17.7651,1.2219346118164063,17.7163Q1.2284746118164063,17.6675,1.2444116118164064,17.6209Q1.2603486118164062,17.5743,1.2850696118164062,17.5317Q1.3097906118164062,17.4891,1.3423456118164063,17.4521Q1.3749006118164062,17.4152,1.414038611816406,17.3853Q1.4531766118164062,17.3554,1.4973946118164063,17.3337Q1.5416146118164062,17.3121,1.5892046118164063,17.2994Q1.6368046118164064,17.2868,1.6859546118164062,17.2837Q1.7351046118164062,17.2806,1.7839046118164064,17.2871Q1.8327146118164062,17.2936,1.8793146118164064,17.3096Q1.9259146118164063,17.3255,1.9685046118164062,17.3502Q2.0110946118164064,17.375,2.0480446118164064,17.4075Q2.0849946118164064,17.4401,2.1148846118164064,17.4792Q2.1447746118164064,17.5184,2.1664446118164062,17.5626Q2.5915446118164063,18.4296,3.1552746118164063,19.2136Q3.1840246118164064,19.2536,3.2044146118164063,19.2984Q3.2248146118164063,19.3432,3.2360746118164063,19.3912Q3.2473346118164064,19.4391,3.2490246118164063,19.4883Q3.2507146118164063,19.5375,3.2427746118164062,19.5861Q3.234834611816406,19.6348,3.2175546118164062,19.6809Q3.2002846118164063,19.727,3.174344611816406,19.7688Q3.1484146118164062,19.8107,3.1148046118164063,19.8467Q3.081204611816406,19.8827,3.041214611816406,19.9115Q3.001234611816406,19.9402,2.956414611816406,19.9606Q2.9115846118164064,19.981,2.8636446118164063,19.9923Q2.815704611816406,20.0035,2.766484611816406,20.0052Q2.717274611816406,20.0069,2.668674611816406,19.999Q2.620074611816406,19.991,2.573954611816406,19.9737Q2.5278346118164063,19.9565,2.485974611816406,19.9305Q2.4441146118164063,19.9046,2.4081146118164063,19.871Q2.3721146118164063,19.8374,2.3433746118164063,19.7974ZM0.24254061181640624,14.9893Q0.03751261181640625,13.9804,0.00032361181640627734,12.9515Q-0.0014553881835937532,12.9023,0.006400611816406276,12.8537Q0.014257611816406224,12.8051,0.03144761181640626,12.759Q0.04863661181640627,12.7128,0.07449961181640624,12.6709Q0.10036161181640624,12.629,0.13390361181640625,12.5929Q0.16744461181640624,12.5569,0.20737561181640624,12.5281Q0.24730761181640626,12.4992,0.29209361181640625,12.4788Q0.3368806118164063,12.4583,0.38480161181640626,12.4469Q0.43272231181640625,12.4356,0.48193591181640627,12.4338Q0.5311494118164063,12.432,0.5797644118164063,12.4399Q0.6283796118164062,12.4477,0.6745276118164063,12.4649Q0.7206756118164063,12.4821,0.7625836118164062,12.508Q0.8044916118164063,12.5338,0.8405486118164063,12.5674Q0.8766056118164063,12.6009,0.9054266118164063,12.6409Q0.9342466118164062,12.6808,0.9547236118164062,12.7256Q0.9752006118164063,12.7704,0.9865456118164062,12.8183Q0.9978916118164063,12.8662,0.9996706118164063,12.9154Q1.0338846118164062,13.862,1.2225106118164062,14.7902Q1.232317611816406,14.8384,1.2325216118164062,14.8877Q1.2327246118164061,14.9369,1.2233176118164062,14.9853Q1.213909611816406,15.0336,1.1952526118164064,15.0792Q1.1765956118164063,15.1247,1.1494056118164062,15.1658Q1.1222156118164062,15.2069,1.0875386118164063,15.2418Q1.0528606118164063,15.2768,1.0120276118164062,15.3043Q0.9711956118164062,15.3319,0.9257766118164062,15.3509Q0.8803576118164063,15.3699,0.8320986118164062,15.3797Q0.7838396118164063,15.3895,0.7345936118164063,15.3897Q0.6853486118164063,15.3899,0.6370096118164063,15.3805Q0.5886712118164062,15.3711,0.5430965118164063,15.3525Q0.49752184181640624,15.3338,0.45646271181640624,15.3066Q0.4154035118164062,15.2794,0.38043761181640623,15.2448Q0.3454716118164063,15.2101,0.3179436118164063,15.1692Q0.29041461181640627,15.1284,0.27138161181640624,15.083Q0.25234761181640625,15.0376,0.24254061181640624,14.9893ZM0.26132061181640626,9.91999Q0.4849244018164062,8.85997,0.8875666118164063,7.85422Q0.9058696118164062,7.8085,0.9327396118164062,7.76723Q0.9596096118164062,7.72596,0.9940146118164063,7.69073Q1.0284196118164064,7.65549,1.0690376118164062,7.62765Q1.1096556118164063,7.5998,1.1549256118164064,7.58042Q1.2001946118164062,7.56103,1.2483766118164064,7.55085Q1.2965586118164063,7.54067,1.345800611816406,7.54008Q1.395042611816406,7.5395,1.4434536118164063,7.54853Q1.4918636118164064,7.55756,1.5375846118164063,7.57586Q1.5833046118164062,7.59417,1.6245646118164063,7.62104Q1.6658346118164062,7.64791,1.7010746118164062,7.68231Q1.7363046118164063,7.71672,1.7641546118164062,7.75733Q1.7919946118164063,7.79795,1.8113846118164063,7.84322Q1.8307646118164063,7.88849,1.8409446118164063,7.93667Q1.8511246118164062,7.98486,1.8517146118164063,8.034099999999999Q1.8523046118164062,8.08334,1.8432646118164062,8.13175Q1.8342346118164063,8.18016,1.8159346118164061,8.22588Q1.445504611816406,9.15117,1.2397876118164062,10.12639Q1.2296236118164061,10.17458,1.2102536118164062,10.21985Q1.1908846118164063,10.26513,1.163053611816406,10.30576Q1.1352236118164063,10.34638,1.1000016118164062,10.3808Q1.0647806118164063,10.41522,1.0235206118164064,10.4421Q0.9822616118164063,10.46899,0.9365496118164063,10.48731Q0.8908376118164063,10.5056,0.8424306118164062,10.5147Q0.7940236118164062,10.5237,0.7447816118164062,10.5232Q0.6955386118164062,10.5226,0.6473536118164063,10.5124Q0.5991686118164062,10.5023,0.5538918118164062,10.48289Q0.5086154118164062,10.46352,0.46798771181640625,10.43569Q0.42736001181640626,10.40786,0.39294241181640627,10.37264Q0.35852461181640627,10.33741,0.3316396118164062,10.29616Q0.3047546118164063,10.2549,0.28643561181640625,10.20918Q0.2681166118164062,10.16347,0.25906761181640625,10.11507Q0.2500186118164063,10.06666,0.25058761181640626,10.01742Q0.2511556118164062,9.96817,0.26132061181640626,9.91999ZM2.3977346118164062,5.12759Q3.025504611816406,4.2680299999999995,3.789584611816406,3.52698Q3.8249346118164063,3.4927,3.8662946118164063,3.46597Q3.9076546118164064,3.43924,3.953434611816406,3.42109Q3.9992146118164063,3.40294,4.047654611816406,3.39408Q4.096094611816406,3.38521,4.145334611816406,3.38596Q4.194574611816407,3.38672,4.242724611816406,3.39706Q4.290864611816406,3.40741,4.336074611816406,3.42694Q4.381274611816407,3.44648,4.421794611816406,3.47447Q4.462324611816406,3.50245,4.496604611816406,3.5378Q4.530884611816406,3.57315,4.5576146118164065,3.61451Q4.584354611816407,3.65587,4.6024946118164065,3.70165Q4.620644611816406,3.74743,4.629514611816406,3.79587Q4.638374611816406,3.84431,4.637624611816406,3.89355Q4.636874611816406,3.94279,4.626524611816406,3.99094Q4.616184611816406,4.03909,4.596644611816406,4.08429Q4.577104611816406,4.1294900000000005,4.549124611816406,4.17002Q4.521134611816406,4.21054,4.485784611816406,4.24482Q3.7828446118164063,4.92658,3.2052846118164062,5.71738Q3.176244611816406,5.75715,3.139994611816406,5.79049Q3.1037546118164063,5.82383,3.061694611816406,5.84946Q3.0196446118164064,5.87508,2.9734046118164064,5.89201Q2.9271546118164062,5.90894,2.8784946118164063,5.91652Q2.8298346118164064,5.92411,2.780634611816406,5.92205Q2.731434611816406,5.92,2.683574611816406,5.90838Q2.635724611816406,5.89677,2.591054611816406,5.87604Q2.546384611816406,5.85531,2.5066146118164063,5.82627Q2.4668446118164065,5.79722,2.4335046118164065,5.76097Q2.400164611816406,5.72473,2.374544611816406,5.68268Q2.348914611816406,5.64062,2.3319846118164063,5.59438Q2.3150546118164064,5.54814,2.3074746118164065,5.49948Q2.299884611816406,5.45082,2.301944611816406,5.40162Q2.3039946118164063,5.35241,2.3156146118164065,5.30456Q2.327224611816406,5.2567,2.347954611816406,5.21203Q2.3686846118164064,5.16736,2.3977346118164062,5.12759ZM6.3199546118164065,1.63014Q7.2296546118164065,1.1135920000000001,8.212544611816405,0.7554339999999999Q8.258814611816407,0.738573,8.307484611816406,0.7310639999999999Q8.356154611816407,0.723554,8.405354611816406,0.725684Q8.454554611816405,0.727814,8.502384611816407,0.739501Q8.550224611816406,0.751188,8.594864611816407,0.771983Q8.639504611816406,0.792779,8.679234611816407,0.8218829999999999Q8.718954611816406,0.8509880000000001,8.752244611816407,0.887283Q8.785524611816406,0.9235789999999999,8.811084611816407,0.96567Q8.836654611816407,1.007761,8.853514611816406,1.0540310000000002Q8.870374611816406,1.1002999999999998,8.877884611816405,1.14897Q8.885394611816407,1.19764,8.883264611816406,1.246839Q8.881124611816407,1.296039,8.869444611816407,1.3438780000000001Q8.857754611816405,1.391716,8.836964611816406,1.436356Q8.816164611816406,1.480995,8.787064611816406,1.52072Q8.757954611816407,1.56045,8.721664611816406,1.59373Q8.685364611816405,1.62701,8.643274611816405,1.65258Q8.601184611816405,1.67814,8.554914611816406,1.695Q7.650654611816406,2.0244999999999997,6.813734611816407,2.49973Q6.770914611816406,2.52404,6.7241646118164065,2.53954Q6.677424611816407,2.55503,6.628554611816406,2.56111Q6.579684611816406,2.56719,6.5305646118164065,2.56362Q6.481454611816406,2.56004,6.4339746118164065,2.54696Q6.386504611816406,2.53387,6.342494611816406,2.51177Q6.298484611816407,2.4896700000000003,6.259624611816406,2.4594199999999997Q6.220774611816406,2.42916,6.1885746118164064,2.3918999999999997Q6.156364611816406,2.35464,6.1320546118164065,2.31182Q6.107734611816406,2.269,6.092244611816406,2.22225Q6.076744611816406,2.17551,6.070664611816406,2.12664Q6.064594611816406,2.07777,6.068164611816406,2.02865Q6.071734611816407,1.97954,6.084824611816407,1.93206Q6.097914611816406,1.88459,6.120004611816406,1.84058Q6.142104611816406,1.79657,6.172364611816406,1.75772Q6.202624611816407,1.71886,6.239874611816406,1.68666Q6.277134611816407,1.65445,6.3199546118164065,1.63014ZM11.308064611816405,0.056211999999999984Q11.898764611816405,0,12.492164611816406,0Q12.898364611816406,0,13.303764611816407,0.026378000000000013Q13.352964611816406,0.029575000000000018,13.400464611816407,0.042298Q13.448064611816406,0.05502099999999999,13.492264611816406,0.07678099999999999Q13.536464611816406,0.09854099999999999,13.575564611816406,0.128502Q13.614564611816407,0.158462,13.647064611816406,0.195471Q13.679564611816406,0.232481,13.704264611816406,0.275117Q13.728864611816407,0.317754,13.744764611816406,0.364378Q13.760564611816406,0.4110031,13.767064611816407,0.4598244Q13.773464611816406,0.50864579,13.770264611816406,0.5577876Q13.767064611816407,0.606929,13.754364611816406,0.6545030000000001Q13.741664611816406,0.7020770000000001,13.719864611816407,0.746254Q13.698064611816406,0.790432,13.668164611816406,0.829515Q13.638164611816407,0.868599,13.601164611816406,0.901086Q13.564164611816405,0.933574,13.521564611816407,0.958217Q13.478864611816407,0.9828600000000001,13.432264611816406,0.998711Q13.385664611816406,1.0145629999999999,13.336864611816406,1.021014Q13.287964611816406,1.0274649999999999,13.238864611816407,1.024267Q12.865864611816406,1,12.492164611816406,1Q11.946264611816407,1,11.402764611816407,1.051715Q11.353764611816406,1.0563799999999999,11.304764611816406,1.051391Q11.255764611816407,1.046402,11.208664611816406,1.0319509999999998Q11.161564611816406,1.017501,11.118264611816405,0.994143Q11.074864611816407,0.970785,11.036964611816407,0.939419Q10.998964611816406,0.9080520000000001,10.967864611816406,0.869882Q10.936764611816406,0.831711,10.913664611816406,0.788204Q10.890564611816407,0.7446969999999999,10.876464611816406,0.697524Q10.862364611816407,0.650352,10.857664611816407,0.601328Q10.852964611816406,0.5523038,10.857964611816406,0.50331142Q10.862964611816405,0.4543191,10.877464611816407,0.40724130000000003Q10.891864611816406,0.36016400000000004,10.915264611816406,0.31681000000000004Q10.938564611816407,0.27345600000000003,10.969964611816406,0.23549199999999998Q11.001364611816406,0.19752799999999998,11.039464611816406,0.16641299999999998Q11.077664611816406,0.135297,11.121164611816406,0.11222700000000002Q11.164664611816406,0.08915600000000001,11.211864611816406,0.07501600000000003Q11.259064611816406,0.060877000000000014,11.308064611816405,0.056211999999999984ZM16.390964611816408,0.623578Q17.393864611816408,0.952824,18.327464611816406,1.445608Q18.370964611816404,1.468597,18.409264611816408,1.499641Q18.447464611816407,1.53068,18.478864611816405,1.56859Q18.510364611816406,1.60649,18.533764611816405,1.6498Q18.557164611816408,1.69311,18.571764611816405,1.74016Q18.586264611816407,1.78722,18.591364611816406,1.8362Q18.596464611816405,1.88518,18.591864611816405,1.93421Q18.587264611816405,1.98325,18.573264611816406,2.03045Q18.559164611816406,2.0776399999999997,18.536164611816407,2.12119Q18.513164611816407,2.16474,18.482164611816405,2.20297Q18.451164611816406,2.2412,18.413264611816405,2.27264Q18.375364611816405,2.30408,18.331964611816407,2.32752Q18.288664611816408,2.3509599999999997,18.241664611816407,2.3655Q18.194564611816407,2.38004,18.145664611816407,2.3851199999999997Q18.096664611816408,2.3902,18.047564611816405,2.3856200000000003Q17.998564611816406,2.38105,17.951364611816405,2.367Q17.904164611816405,2.35295,17.860664611816407,2.32996Q17.001764611816405,1.8766,16.079064611816406,1.57369Q16.03226461181641,1.55833,15.989364611816406,1.53414Q15.946464611816406,1.50995,15.909164611816406,1.47785Q15.871764611816406,1.4457529999999998,15.841364611816406,1.406987Q15.811064611816406,1.368222,15.788864611816406,1.324276Q15.766564611816406,1.28033,15.753364611816407,1.232893Q15.740164611816406,1.1854550000000001,15.736464611816407,1.13635Q15.732764611816407,1.087245,15.738664611816406,1.0383580000000001Q15.744564611816406,0.989471,15.759964611816406,0.9426829999999999Q15.775264611816405,0.895893,15.799464611816406,0.853Q15.823664611816406,0.810107,15.855764611816406,0.772757Q15.887864611816406,0.7354080000000001,15.926664611816406,0.705038Q15.965464611816406,0.674668,16.00936461181641,0.652444Q16.053264611816406,0.63022,16.100764611816405,0.616997Q16.148164611816405,0.603774,16.197264611816408,0.600059Q16.246364611816407,0.5963446,16.295264611816407,0.602281Q16.344164611816407,0.608218,16.390964611816408,0.623578ZM20.909164611816408,3.25856Q21.696764611816405,3.97591,22.351564611816407,4.81617Q22.381864611816408,4.85501,22.403964611816406,4.89901Q22.426064611816408,4.94301,22.439164611816405,4.99048Q22.452264611816407,5.03795,22.455864611816406,5.08707Q22.459464611816408,5.13618,22.453464611816408,5.18506Q22.447364611816408,5.23393,22.431864611816405,5.28068Q22.416364611816405,5.32743,22.392064611816405,5.37026Q22.367764611816405,5.41309,22.335664611816405,5.45036Q22.303464611816405,5.48763,22.264564611816407,5.5179Q22.225764611816405,5.54817,22.181764611816405,5.57028Q22.137764611816408,5.59239,22.090264611816405,5.6055Q22.042764611816406,5.6186,21.993664611816406,5.62219Q21.944564611816407,5.62578,21.895664611816407,5.61972Q21.846864611816407,5.61366,21.800064611816406,5.59818Q21.753364611816405,5.5827,21.710464611816406,5.5584Q21.667664611816406,5.5341,21.630364611816407,5.50191Q21.593164611816405,5.46971,21.562864611816405,5.43087Q20.960364611816406,4.65783,20.235764611816407,3.99788Q20.199364611816407,3.96472,20.170164611816407,3.92509Q20.140864611816408,3.88547,20.119964611816407,3.8409Q20.099064611816406,3.79633,20.087164611816405,3.74853Q20.075364611816408,3.70073,20.073064611816406,3.65154Q20.070764611816408,3.60235,20.078064611816405,3.55365Q20.085364611816406,3.50496,20.102164611816406,3.45863Q20.118864611816406,3.4123,20.144264611816407,3.37013Q20.169664611816405,3.32795,20.202864611816405,3.29154Q20.235964611816406,3.25513,20.275564611816407,3.22589Q20.315264611816406,3.19665,20.359764611816406,3.17571Q20.404364611816405,3.15476,20.452164611816407,3.14291Q20.499964611816406,3.13106,20.549164611816405,3.12876Q20.598364611816407,3.12647,20.647064611816408,3.13381Q20.695764611816408,3.14116,20.742064611816406,3.15786Q20.788364611816405,3.17456,20.830564611816406,3.19998Q20.872764611816407,3.2254,20.909164611816408,3.25856ZM23.951264611816406,7.50606Q24.381164611816406,8.492560000000001,24.636164611816405,9.53803Q24.647864611816406,9.58587,24.649964611816408,9.63507Q24.652064611816407,9.68427,24.644564611816406,9.73294Q24.636964611816406,9.7816,24.620164611816406,9.82787Q24.603264611816407,9.87413,24.577664611816406,9.91621Q24.552064611816405,9.95829,24.518764611816405,9.99458Q24.485464611816408,10.03086,24.445764611816408,10.05995Q24.406064611816408,10.08904,24.361364611816406,10.10982Q24.316764611816406,10.1306,24.268864611816408,10.14227Q24.221064611816406,10.15394,24.171864611816407,10.15605Q24.122664611816408,10.15816,24.073964611816407,10.15063Q24.025264611816407,10.1431,23.979064611816405,10.12623Q23.932764611816406,10.10935,23.890664611816405,10.08377Q23.848564611816407,10.05819,23.812364611816406,10.02489Q23.776064611816405,9.9916,23.746964611816406,9.95186Q23.717864611816406,9.91212,23.697064611816405,9.86748Q23.676264611816407,9.82283,23.664664611816406,9.77499Q23.430064611816405,8.81315,23.034564611816407,7.90557Q23.014864611816407,7.86043,23.004364611816406,7.81231Q22.993864611816406,7.7642,22.992964611816408,7.71496Q22.992064611816406,7.66572,23.000764611816408,7.61726Q23.009464611816405,7.56879,23.027564611816405,7.52295Q23.045564611816406,7.47712,23.072164611816405,7.43568Q23.098764611816407,7.39424,23.132964611816405,7.35879Q23.167064611816407,7.32333,23.207564611816405,7.29523Q23.247964611816407,7.26713,23.293164611816405,7.24745Q23.338264611816406,7.22778,23.386364611816408,7.21729Q23.434464611816406,7.2068,23.483764611816405,7.2059Q23.532964611816407,7.205,23.581464611816408,7.21372Q23.629864611816405,7.22244,23.675764611816405,7.24046Q23.721564611816405,7.25846,23.762964611816408,7.28507Q23.804464611816407,7.31168,23.839864611816406,7.34586Q23.875364611816405,7.38004,23.903464611816407,7.42048Q23.931564611816405,7.46091,23.951264611816406,7.50606ZM24.992164611816406,12.5Q24.992164611816406,13.5159,24.828164611816405,14.5184Q24.820164611816406,14.567,24.802864611816407,14.6131Q24.785564611816405,14.6593,24.759664611816405,14.7011Q24.733764611816405,14.743,24.700064611816405,14.779Q24.666464611816405,14.815,24.626464611816406,14.8437Q24.586564611816407,14.8724,24.541664611816405,14.8928Q24.496864611816406,14.9132,24.448964611816407,14.9245Q24.400964611816406,14.9357,24.351764611816407,14.9374Q24.302564611816408,14.9391,24.253964611816407,14.9311Q24.205364611816407,14.9232,24.159264611816408,14.9059Q24.113164611816405,14.8886,24.071264611816407,14.8627Q24.029364611816405,14.8367,23.993464611816407,14.8031Q23.957464611816405,14.7695,23.928664611816405,14.7295Q23.899964611816408,14.6895,23.879564611816406,14.6447Q23.859164611816407,14.5999,23.847864611816405,14.5519Q23.836664611816406,14.504,23.834964611816407,14.4548Q23.833264611816407,14.4056,23.841264611816406,14.357Q23.992164611816406,13.4346,23.992164611816406,12.5Q23.992164611816406,12.4508,24.001764611816405,12.4025Q24.011364611816408,12.3542,24.030264611816406,12.3087Q24.049064611816405,12.2632,24.076464611816405,12.2222Q24.103764611816406,12.1813,24.138564611816406,12.1464Q24.173464611816406,12.1116,24.214364611816407,12.0843Q24.255364611816407,12.0569,24.300864611816408,12.0381Q24.346364611816405,12.0192,24.394664611816406,12.0096Q24.442964611816407,12,24.492164611816406,12Q24.541364611816405,12,24.589664611816406,12.0096Q24.637964611816408,12.0192,24.683464611816404,12.0381Q24.728964611816405,12.0569,24.769964611816405,12.0843Q24.810864611816406,12.1116,24.845764611816406,12.1464Q24.880564611816407,12.1813,24.907864611816407,12.2222Q24.935264611816407,12.2632,24.954064611816406,12.3087Q24.972964611816405,12.3542,24.982564611816407,12.4025Q24.992164611816406,12.4508,24.992164611816406,12.5Z" fill="#A3A6AD" fill-opacity="1"/></g><g><g transform="matrix(0,1,-1,0,28.763689756393433,-5.134891748428345)"><rect x="16.94929075241089" y="11.814399003982544" width="1.3714286088943481" height="8.914286613464355" rx="0.6857143044471741" fill="#A3A6AD" fill-opacity="1"/></g><g transform="matrix(1,-2.2348338291067193e-8,2.2348338291067193e-8,1,-1.797480635445936e-7,2.6385275653240114e-7)"><rect x="11.806370258331299" y="8.043016910552979" width="1.3714286088943481" height="8.914286613464355" rx="0.6857143044471741" fill="#A3A6AD" fill-opacity="1"/></g></g></g></svg>