<svg xmlns="http://www.w3.org/2000/svg" xmlns:xlink="http://www.w3.org/1999/xlink" fill="none" version="1.1" width="265" height="25.999998092651367" viewBox="0 0 265 25.999998092651367"><g><path d="M106.188,11.21L105.096,19.01L86.87,19.01L87.962,11.21L106.188,11.21ZM86.35,10.898L89.47,6.816L87.208,6.816L87.494,4.736L95.684,4.736L95.736,4.424L94.566,3.514L100.546,3.514L100.364,4.736L108.086,4.736L107.8,6.816L106.006,6.816L107.358,10.898L102.626,10.898L101.274,6.816L100.078,6.816L99.532,10.872L94.826,10.872L95.398,6.816L94.202,6.816L91.082,10.898L86.35,10.898ZM106.422,19.556L106.11,21.818L85.128,21.818L85.44,19.556L106.422,19.556ZM92.382,14.278L101.144,14.278L101.3,13.29L92.538,13.29L92.382,14.278ZM100.806,16.826L100.91,15.968L92.148,15.968L92.044,16.826L100.806,16.826ZM114.196,9.442L114.794,8.714L111.05,8.714L111.31,6.738L116.38,6.738L117.108,5.854L110.92,5.984L111.206,4.008L132.032,3.514L131.746,5.49L123.14,5.698L122.308,6.738L131.07,6.738L130.81,8.714L120.722,8.714L120.124,9.442L131.2,9.442L130.914,11.418L118.538,11.418L117.94,12.172L130.056,12.172L128.626,22.234L110.608,22.234L111.518,15.864L109.048,15.864L112.61,11.418L110.166,11.418L110.452,9.442L114.196,9.442ZM124.466,20.31L124.596,19.4L115.47,19.4L115.34,20.31L124.466,20.31ZM115.704,17.684L124.83,17.684L124.96,16.774L115.834,16.774L115.704,17.684ZM116.068,15.032L125.194,15.032L125.324,14.148L116.198,14.148L116.068,15.032ZM138.142,17.346L133.826,17.346L134.164,14.876L140.95,14.876L142.068,13.888L148.204,13.888L147.086,14.876L154.912,14.876L154.574,17.346L149.79,17.346L154.366,22.234L147.97,22.234L143.94,17.658L138.766,22.234L132.63,22.234L138.142,17.346ZM150.986,3.514L150.362,4.502L156.29,4.502L155.822,7.96L151.662,13.368L143.16,13.368L143.524,10.898L144.59,10.898L143.992,8.428L148.022,8.428L148.62,10.898L148.932,10.898L151.584,6.972L148.854,6.972L148.256,7.934L143.654,7.934L146.098,4.164L145.552,3.514L150.986,3.514ZM138.012,12.094L134.398,13.394L134.814,10.508L138.428,9.208L138.532,8.324L135.204,7.7L135.594,4.97L138.922,5.594L139.078,4.554L138.35,3.514L143.862,3.514L142.484,13.342L137.856,13.342L138.012,12.094ZM171.864,9.39L171.032,9.39L171.37,6.894L172.488,6.894L173.112,4.372L172.358,3.54L176.882,3.54L176.05,6.894L180.262,6.894L178.364,20.44Q178.26,21.194,177.818,21.675Q177.376,22.156,176.622,22.156L172.644,22.156L174.88,19.634L176.31,9.39L175.426,9.39L172.28,22.182L168.744,22.182L171.864,9.39ZM165.52,20.336L166.482,13.524L165.546,13.524L163.544,22.234L160.372,22.234L163.206,9.962L162.686,9.962L163.024,7.57L170.33,7.57L169.992,9.962L166.378,9.962L166.04,11.418L169.836,11.418L168.562,20.44Q168.458,21.194,167.873,21.701Q167.288,22.208,166.534,22.208L163.804,22.208L165.52,20.336ZM171.11,4.008L170.772,6.426L162.816,6.426L159.8,22.156L156.498,22.156L159.644,4.944L159.15,4.008L171.11,4.008Z" fill="#FFFFFF" fill-opacity="1"/></g></svg>