<svg xmlns="http://www.w3.org/2000/svg" xmlns:xlink="http://www.w3.org/1999/xlink" fill="none" version="1.1" width="265" height="25.999998092651367" viewBox="0 0 265 25.999998092651367"><g><path d="M82.268,11.21L81.176,19.01L62.95,19.01L64.042,11.21L82.268,11.21ZM62.43,10.898L65.55,6.816L63.288,6.816L63.574,4.736L71.764,4.736L71.816,4.424L70.646,3.514L76.626,3.514L76.444,4.736L84.166,4.736L83.88,6.816L82.086,6.816L83.438,10.898L78.706,10.898L77.354,6.816L76.158,6.816L75.612,10.872L70.906,10.872L71.478,6.816L70.282,6.816L67.162,10.898L62.43,10.898ZM82.502,19.556L82.19,21.818L61.208,21.818L61.52,19.556L82.502,19.556ZM68.462,14.278L77.224,14.278L77.38,13.29L68.618,13.29L68.462,14.278ZM76.886,16.826L76.99,15.968L68.228,15.968L68.124,16.826L76.886,16.826ZM90.276,9.442L90.874,8.714L87.13,8.714L87.39,6.738L92.46,6.738L93.188,5.854L87,5.984L87.286,4.008L108.112,3.514L107.826,5.49L99.22,5.698L98.388,6.738L107.15,6.738L106.89,8.714L96.802,8.714L96.204,9.442L107.28,9.442L106.994,11.418L94.618,11.418L94.02,12.172L106.136,12.172L104.706,22.234L86.688,22.234L87.598,15.864L85.128,15.864L88.69,11.418L86.246,11.418L86.532,9.442L90.276,9.442ZM100.546,20.31L100.676,19.4L91.55,19.4L91.42,20.31L100.546,20.31ZM91.784,17.684L100.91,17.684L101.04,16.774L91.914,16.774L91.784,17.684ZM92.148,15.032L101.274,15.032L101.404,14.148L92.278,14.148L92.148,15.032ZM127.04,3.514L131.902,11.184L128.418,11.184L128.314,11.912L123.374,11.912L123.062,14.122L128.496,14.122L128.158,16.592L122.724,16.592L122.334,19.322L130.238,19.322L129.9,21.792L109.152,21.792L109.49,19.322L117.394,19.322L117.784,16.592L112.35,16.592L112.688,14.122L118.122,14.122L118.434,11.912L113.494,11.912L113.598,11.184L110.166,11.184L116.51,4.242L115.912,3.514L127.04,3.514ZM116.692,9.442L125.87,9.442L123.686,5.984L119.864,5.984L116.692,9.442ZM151.038,6.452L148.802,22.208L144.98,22.208L147.554,4.008L156.03,4.008L155.692,6.452L154.444,10.69L155.614,10.69L155.276,13.16L153.846,20.232L149.92,20.232L150.232,18.022L151.142,18.022L152.13,13.16L150.804,13.16L151.142,10.69L152.39,6.452L151.038,6.452ZM145.006,14.122L143.94,21.74L132.89,21.74L133.956,14.122L145.006,14.122ZM144.382,7.934L143.576,10.846L145.942,10.846L145.604,13.264L133.592,13.264L133.93,10.846L135.854,10.846L135.906,7.83L139.182,7.83L139.13,10.846L140.456,10.846L141.288,7.934L144.382,7.934ZM138.74,4.892L138.792,4.528L138.142,3.54L142.744,3.54L142.536,4.892L146.462,4.892L146.15,7.154L134.788,7.154L135.1,4.892L138.74,4.892ZM140.326,19.452L140.742,16.384L137.596,16.384L137.18,19.452L140.326,19.452ZM162.062,17.346L157.746,17.346L158.084,14.876L164.87,14.876L165.988,13.888L172.124,13.888L171.006,14.876L178.832,14.876L178.494,17.346L173.71,17.346L178.286,22.234L171.89,22.234L167.86,17.658L162.686,22.234L156.55,22.234L162.062,17.346ZM174.906,3.514L174.282,4.502L180.21,4.502L179.742,7.96L175.582,13.368L167.08,13.368L167.444,10.898L168.51,10.898L167.912,8.428L171.942,8.428L172.54,10.898L172.852,10.898L175.504,6.972L172.774,6.972L172.176,7.934L167.574,7.934L170.018,4.164L169.472,3.514L174.906,3.514ZM161.932,12.094L158.318,13.394L158.734,10.508L162.348,9.208L162.452,8.324L159.124,7.7L159.514,4.97L162.842,5.594L162.998,4.554L162.27,3.514L167.782,3.514L166.404,13.342L161.776,13.342L161.932,12.094ZM195.784,9.39L194.952,9.39L195.29,6.894L196.408,6.894L197.032,4.372L196.278,3.54L200.802,3.54L199.97,6.894L204.182,6.894L202.284,20.44Q202.18,21.194,201.738,21.675Q201.296,22.156,200.542,22.156L196.564,22.156L198.8,19.634L200.23,9.39L199.346,9.39L196.2,22.182L192.664,22.182L195.784,9.39ZM189.44,20.336L190.402,13.524L189.466,13.524L187.464,22.234L184.292,22.234L187.126,9.962L186.606,9.962L186.944,7.57L194.25,7.57L193.912,9.962L190.298,9.962L189.96,11.418L193.756,11.418L192.482,20.44Q192.378,21.194,191.793,21.701Q191.208,22.208,190.454,22.208L187.724,22.208L189.44,20.336ZM195.03,4.008L194.692,6.426L186.736,6.426L183.72,22.156L180.418,22.156L183.564,4.944L183.07,4.008L195.03,4.008Z" fill="#FFFFFF" fill-opacity="1"/></g></svg>